<svg width="12" height="11" viewBox="0 0 12 11" fill="none" xmlns="http://www.w3.org/2000/svg">
<g clip-path="url(#clip0_3339_10189)">
<path d="M8.12791 0.197754C8.20577 0.195623 8.28358 0.207973 8.35643 0.234863C8.42917 0.261741 8.49595 0.302107 8.55272 0.354004C8.60951 0.405936 8.65542 0.468371 8.68748 0.537598C8.71955 0.606907 8.73702 0.68227 8.73924 0.758301C8.74142 0.834235 8.72812 0.910067 8.70018 0.980957C8.6722 1.05182 8.62983 1.11643 8.57616 1.17139L4.3535 5.49658L8.57518 9.82275C8.63014 9.87755 8.67416 9.94286 8.70311 10.0142C8.73206 10.0855 8.74585 10.1621 8.74413 10.2388C8.74235 10.3153 8.72535 10.3906 8.69334 10.4604C8.66123 10.5304 8.61494 10.5936 8.5576 10.646C8.50028 10.6984 8.4329 10.7393 8.35936 10.7661C8.2858 10.793 8.20738 10.8049 8.12889 10.8022C8.05039 10.7995 7.9728 10.7823 7.90135 10.7505C7.83001 10.7187 7.7662 10.6728 7.71288 10.6167L3.1035 5.89404C2.99906 5.78702 2.94041 5.64449 2.94041 5.49658C2.94054 5.34885 2.99919 5.20701 3.1035 5.1001L7.71288 0.377441C7.7666 0.32243 7.83117 0.278401 7.90233 0.247559C7.97348 0.216729 8.0501 0.199897 8.12791 0.197754Z" fill="#999999" stroke="#999999" stroke-width="0.104948"/>
</g>
<defs>
<clipPath id="clip0_3339_10189">
<rect width="12" height="11" fill="white"/>
</clipPath>
</defs>
</svg>
