<svg width="22" height="22" viewBox="0 0 22 22" fill="none" xmlns="http://www.w3.org/2000/svg">
<path d="M17.737 8.19043C17.7397 8.09423 17.7234 7.99813 17.6891 7.9082C17.6548 7.81829 17.6029 7.73598 17.5368 7.66602C17.4706 7.59601 17.3913 7.53936 17.3034 7.5C17.2155 7.46065 17.1204 7.43925 17.0241 7.43652C16.928 7.43385 16.8318 7.45009 16.7419 7.48438C16.6521 7.51871 16.5696 7.57069 16.4997 7.63672L11.0046 12.8281L5.50653 7.63574L5.50653 7.63672C5.43688 7.56918 5.35464 7.51595 5.26434 7.48047C5.17393 7.44495 5.07728 7.42758 4.98016 7.42969C4.88313 7.4318 4.78763 7.45381 4.69891 7.49316C4.61015 7.53258 4.52927 7.58857 4.46259 7.65918C4.39591 7.72978 4.34452 7.81344 4.31024 7.9043C4.27596 7.9952 4.25992 8.09236 4.26337 8.18945C4.26685 8.28634 4.28924 8.38165 4.32977 8.46973C4.37039 8.5579 4.42822 8.63743 4.49969 8.70313L4.50067 8.70313L10.4997 14.3691C10.6358 14.4978 10.8163 14.5693 11.0036 14.5693C11.191 14.5693 11.3714 14.4979 11.5075 14.3691L17.5075 8.70215C17.5774 8.63602 17.6342 8.5566 17.6735 8.46875C17.7127 8.38105 17.7342 8.28645 17.737 8.19043Z" fill="#ADADAD" stroke="#ADADAD" stroke-width="0.133333"/>
</svg>
