<svg width="20" height="20" viewBox="0 0 20 20" fill="none" xmlns="http://www.w3.org/2000/svg">
<path d="M9.96152 2.5C14.1373 2.5 17.5373 5.89935 17.5373 10.0751V14.6285C17.5372 16.2112 16.2479 17.5 14.6652 17.5H14.5673C12.9845 17.4999 11.6959 16.2112 11.6958 14.6285V13.2108C11.6959 11.6281 12.9845 10.3394 14.5673 10.3393H14.6652C15.3192 10.3393 15.9232 10.5597 16.4067 10.9297V10.0751C16.4066 6.52497 13.5192 3.63063 9.96152 3.63063C8.22048 3.63071 6.60723 4.30137 5.40883 5.52238C4.20289 6.75097 3.56278 8.3868 3.5929 10.1355V10.9289C4.07626 10.5592 4.67996 10.3394 5.33375 10.3393H5.43165C7.01443 10.3393 8.30369 11.6281 8.30386 13.2108V14.6285C8.30369 16.2112 7.01443 17.5 5.43165 17.5H5.33375C3.75106 17.4999 2.46245 16.2112 2.46227 14.6285V10.1509C2.42459 8.10823 3.18576 6.1783 4.60281 4.73109C6.01979 3.29155 7.91903 2.50008 9.96152 2.5Z" fill="#ADADAD"/>
</svg>
