<svg width="19" height="18" viewBox="0 0 19 18" fill="none" xmlns="http://www.w3.org/2000/svg">
<path d="M0.75 8.66667C0.75 5.52417 0.75 3.9525 1.72667 2.97667C2.70333 2.00083 4.27417 2 7.41667 2H10.75C13.8925 2 15.4642 2 16.44 2.97667C17.4158 3.95333 17.4167 5.52417 17.4167 8.66667V10.3333C17.4167 13.4758 17.4167 15.0475 16.44 16.0233C15.4633 16.9992 13.8925 17 10.75 17H7.41667C4.27417 17 2.7025 17 1.72667 16.0233C0.750833 15.0467 0.75 13.4758 0.75 10.3333V8.66667Z" stroke="#ADADAD" stroke-width="1.5"/>
<path d="M4.91699 2V0.75M13.2503 2V0.75M1.16699 6.16667H17.0003" stroke="#ADADAD" stroke-width="1.5" stroke-linecap="round"/>
<path d="M14.083 12.8337C14.083 13.0547 13.9952 13.2666 13.8389 13.4229C13.6827 13.5792 13.4707 13.667 13.2497 13.667C13.0287 13.667 12.8167 13.5792 12.6604 13.4229C12.5041 13.2666 12.4163 13.0547 12.4163 12.8337C12.4163 12.6126 12.5041 12.4007 12.6604 12.2444C12.8167 12.0881 13.0287 12.0003 13.2497 12.0003C13.4707 12.0003 13.6827 12.0881 13.8389 12.2444C13.9952 12.4007 14.083 12.6126 14.083 12.8337ZM14.083 9.50033C14.083 9.72134 13.9952 9.9333 13.8389 10.0896C13.6827 10.2459 13.4707 10.3337 13.2497 10.3337C13.0287 10.3337 12.8167 10.2459 12.6604 10.0896C12.5041 9.9333 12.4163 9.72134 12.4163 9.50033C12.4163 9.27931 12.5041 9.06735 12.6604 8.91107C12.8167 8.75479 13.0287 8.66699 13.2497 8.66699C13.4707 8.66699 13.6827 8.75479 13.8389 8.91107C13.9952 9.06735 14.083 9.27931 14.083 9.50033ZM9.91634 12.8337C9.91634 13.0547 9.82854 13.2666 9.67226 13.4229C9.51598 13.5792 9.30402 13.667 9.08301 13.667C8.86199 13.667 8.65003 13.5792 8.49375 13.4229C8.33747 13.2666 8.24967 13.0547 8.24967 12.8337C8.24967 12.6126 8.33747 12.4007 8.49375 12.2444C8.65003 12.0881 8.86199 12.0003 9.08301 12.0003C9.30402 12.0003 9.51598 12.0881 9.67226 12.2444C9.82854 12.4007 9.91634 12.6126 9.91634 12.8337ZM9.91634 9.50033C9.91634 9.72134 9.82854 9.9333 9.67226 10.0896C9.51598 10.2459 9.30402 10.3337 9.08301 10.3337C8.86199 10.3337 8.65003 10.2459 8.49375 10.0896C8.33747 9.9333 8.24967 9.72134 8.24967 9.50033C8.24967 9.27931 8.33747 9.06735 8.49375 8.91107C8.65003 8.75479 8.86199 8.66699 9.08301 8.66699C9.30402 8.66699 9.51598 8.75479 9.67226 8.91107C9.82854 9.06735 9.91634 9.27931 9.91634 9.50033ZM5.74967 12.8337C5.74967 13.0547 5.66188 13.2666 5.5056 13.4229C5.34932 13.5792 5.13735 13.667 4.91634 13.667C4.69533 13.667 4.48337 13.5792 4.32709 13.4229C4.17081 13.2666 4.08301 13.0547 4.08301 12.8337C4.08301 12.6126 4.17081 12.4007 4.32709 12.2444C4.48337 12.0881 4.69533 12.0003 4.91634 12.0003C5.13735 12.0003 5.34932 12.0881 5.5056 12.2444C5.66188 12.4007 5.74967 12.6126 5.74967 12.8337ZM5.74967 9.50033C5.74967 9.72134 5.66188 9.9333 5.5056 10.0896C5.34932 10.2459 5.13735 10.3337 4.91634 10.3337C4.69533 10.3337 4.48337 10.2459 4.32709 10.0896C4.17081 9.9333 4.08301 9.72134 4.08301 9.50033C4.08301 9.27931 4.17081 9.06735 4.32709 8.91107C4.48337 8.75479 4.69533 8.66699 4.91634 8.66699C5.13735 8.66699 5.34932 8.75479 5.5056 8.91107C5.66188 9.06735 5.74967 9.27931 5.74967 9.50033Z" fill="#ADADAD"/>
</svg>
