<svg width="24" height="24" viewBox="0 0 24 24" fill="none" xmlns="http://www.w3.org/2000/svg">
<path d="M11.9995 18.4515L7.15211 21.3716C6.93797 21.5079 6.71409 21.5663 6.48048 21.5468C6.24687 21.5274 6.04246 21.4495 5.86726 21.3132C5.69205 21.177 5.55578 21.0068 5.45844 20.8028C5.3611 20.5988 5.34164 20.3698 5.40004 20.116L6.68489 14.597L2.39232 10.8884C2.19764 10.7132 2.07617 10.5135 2.02789 10.2892C1.97961 10.0649 1.99401 9.84613 2.07111 9.63277C2.1482 9.4194 2.265 9.2442 2.42152 9.10715C2.57804 8.97009 2.79218 8.88249 3.06395 8.84434L8.72897 8.34792L10.9191 3.15011C11.0164 2.9165 11.1675 2.74129 11.3723 2.62449C11.5771 2.50768 11.7861 2.44928 11.9995 2.44928C12.2129 2.44928 12.4219 2.50768 12.6267 2.62449C12.8315 2.74129 12.9826 2.9165 13.0799 3.15011L15.27 8.34792L20.9351 8.84434C21.2076 8.88327 21.4217 8.97087 21.5775 9.10715C21.7332 9.24342 21.85 9.41863 21.9279 9.63277C22.0058 9.84691 22.0206 10.0661 21.9723 10.2904C21.924 10.5146 21.8021 10.714 21.6067 10.8884L17.3141 14.597L18.599 20.116C18.6574 20.3691 18.6379 20.598 18.5406 20.8028C18.4432 21.0076 18.307 21.1777 18.1317 21.3132C17.9565 21.4487 17.7521 21.5266 17.5185 21.5468C17.2849 21.5671 17.061 21.5087 16.8469 21.3716L11.9995 18.4515Z" fill="#FFC300"/>
</svg>
