<svg width="22" height="22" viewBox="0 0 22 22" fill="none" xmlns="http://www.w3.org/2000/svg">
<path d="M13.97 20.1666L10.4005 20.1666C8.7835 20.1666 7.502 20.1666 6.50008 20.031C5.46792 19.8916 4.63283 19.5983 3.97467 18.9374C3.31558 18.2765 3.02317 17.4377 2.88475 16.4019C2.75 15.3954 2.75 14.1093 2.75 12.4859L2.75 7.13438C2.75 5.75205 3.59333 4.56771 4.79142 4.07088C4.73 4.90504 4.73 6.07379 4.73 7.04729V11.6398C4.73 12.814 4.73 13.827 4.83817 14.6373C4.95458 15.5063 5.21675 16.3386 5.88958 17.0142C6.56242 17.6898 7.392 17.9529 8.25733 18.0702C9.064 18.1784 10.0723 18.1784 11.2429 18.1784H14.0571C15.2267 18.1784 16.2332 18.1784 17.0408 18.0702C16.7989 18.6878 16.3766 19.2181 15.8288 19.5921C15.281 19.966 14.6333 20.1663 13.97 20.1666Z" fill="#60A4F1"/>
<path d="M6.05005 11.5528C6.05005 14.0516 6.05005 15.3011 6.82372 16.0775C7.59647 16.8539 8.84038 16.8539 11.33 16.8539H13.97C16.4588 16.8539 17.7036 16.8539 18.4773 16.0775C19.251 15.3011 19.25 14.0516 19.25 11.5528V7.13447C19.25 4.63563 19.25 3.38622 18.4773 2.6098C17.7036 1.83338 16.4588 1.83338 13.97 1.83338L11.33 1.83338C8.8413 1.83338 7.59647 1.83338 6.82372 2.6098C6.05005 3.38622 6.05005 4.63563 6.05005 7.13447L6.05005 11.5528Z" fill="#60A4F1"/>
</svg>
