<svg width="22" height="22" viewBox="0 0 22 22" fill="none" xmlns="http://www.w3.org/2000/svg">
<path d="M13.97 1.83325H10.4005C8.7835 1.83325 7.502 1.83325 6.50008 1.96892C5.46792 2.10825 4.63283 2.40159 3.97467 3.0625C3.31558 3.72342 3.02317 4.56217 2.88475 5.598C2.75 6.6045 2.75 7.89059 2.75 9.514V14.8655C2.75 16.2478 3.59333 17.4322 4.79142 17.929C4.73 17.0948 4.73 15.9261 4.73 14.9526V10.3601C4.73 9.18584 4.73 8.17292 4.83817 7.36259C4.95458 6.49358 5.21675 5.66125 5.88958 4.98567C6.56242 4.31009 7.392 4.047 8.25733 3.92967C9.064 3.8215 10.0723 3.8215 11.2429 3.8215H14.0571C15.2268 3.8215 16.2333 3.8215 17.0408 3.92967C16.7989 3.3121 16.3766 2.78176 15.8288 2.4078C15.281 2.03384 14.6333 1.83362 13.97 1.83325Z" fill="#C2C2C2"/>
<path d="M6.05005 10.4473C6.05005 7.94849 6.05005 6.69907 6.82372 5.92266C7.59647 5.14624 8.84038 5.14624 11.33 5.14624H13.97C16.4588 5.14624 17.7036 5.14624 18.4773 5.92266C19.251 6.69907 19.25 7.94849 19.25 10.4473V14.8657C19.25 17.3645 19.25 18.6139 18.4773 19.3903C17.7036 20.1667 16.4588 20.1667 13.97 20.1667H11.33C8.8413 20.1667 7.59647 20.1667 6.82372 19.3903C6.05005 18.6139 6.05005 17.3645 6.05005 14.8657V10.4473Z" fill="#C2C2C2"/>
</svg>
