<svg width="24" height="24" viewBox="0 0 24 24" fill="none" xmlns="http://www.w3.org/2000/svg">
<path d="M6 21C5.71667 21 5.47934 20.904 5.288 20.712C5.09667 20.52 5.00067 20.2827 5 20C4.99934 19.7173 5.09534 19.48 5.288 19.288C5.48067 19.096 5.718 19 6 19H18C18.2833 19 18.521 19.096 18.713 19.288C18.905 19.48 19.0007 19.7173 19 20C18.9993 20.2827 18.9033 20.5203 18.712 20.713C18.5207 20.9057 18.2833 21.0013 18 21H6ZM6.7 17.5C6.21667 17.5 5.78767 17.3417 5.413 17.025C5.03834 16.7083 4.809 16.3083 4.725 15.825L3.725 9.475C3.69167 9.475 3.65434 9.47934 3.613 9.488C3.57167 9.49667 3.534 9.50067 3.5 9.5C3.08334 9.5 2.72934 9.35434 2.438 9.063C2.14667 8.77167 2.00067 8.41734 2 8C1.99934 7.58267 2.14534 7.22867 2.438 6.938C2.73067 6.64734 3.08467 6.50134 3.5 6.5C3.91534 6.49867 4.26967 6.64467 4.563 6.938C4.85634 7.23134 5.002 7.58534 5 8C5 8.11667 4.98734 8.225 4.962 8.325C4.93667 8.425 4.90767 8.51667 4.875 8.6L8 10L11.125 5.725C10.9417 5.59167 10.7917 5.41667 10.675 5.2C10.5583 4.98334 10.5 4.75 10.5 4.5C10.5 4.08334 10.646 3.729 10.938 3.437C11.23 3.145 11.584 2.99934 12 3C12.416 3.00067 12.7703 3.14667 13.063 3.438C13.3557 3.72934 13.5013 4.08334 13.5 4.5C13.5 4.75 13.4417 4.98334 13.325 5.2C13.2083 5.41667 13.0583 5.59167 12.875 5.725L16 10L19.125 8.6C19.0917 8.51667 19.0623 8.425 19.037 8.325C19.0117 8.225 18.9993 8.11667 19 8C19 7.58334 19.146 7.229 19.438 6.937C19.73 6.645 20.084 6.49934 20.5 6.5C20.916 6.50067 21.2703 6.64667 21.563 6.938C21.8557 7.22934 22.0013 7.58334 22 8C21.9987 8.41667 21.853 8.771 21.563 9.063C21.273 9.355 20.9187 9.50067 20.5 9.5C20.4667 9.5 20.4293 9.496 20.388 9.488C20.3467 9.48 20.309 9.47567 20.275 9.475L19.275 15.825C19.1917 16.3083 18.9627 16.7083 18.588 17.025C18.2133 17.3417 17.784 17.5 17.3 17.5H6.7Z" fill="#FFC300"/>
</svg>
