<svg width="40" height="40" viewBox="0 0 40 40" fill="none" xmlns="http://www.w3.org/2000/svg">
<rect width="40" height="40" rx="10" fill="#F7F7F7"/>
<path d="M12.8 30.8002C12.46 30.8002 12.1752 30.685 11.9456 30.4546C11.716 30.2242 11.6008 29.9394 11.6 29.6002C11.5992 29.261 11.7144 28.9762 11.9456 28.7458C12.1768 28.5154 12.4616 28.4002 12.8 28.4002H27.2C27.54 28.4002 27.8252 28.5154 28.0556 28.7458C28.286 28.9762 28.4008 29.261 28.4 29.6002C28.3992 29.9394 28.284 30.2246 28.0544 30.4558C27.8248 30.687 27.54 30.8018 27.2 30.8002H12.8ZM13.64 26.6002C13.06 26.6002 12.5452 26.4102 12.0956 26.0302C11.646 25.6502 11.3708 25.1702 11.27 24.5902L10.07 16.9702C10.03 16.9702 9.9852 16.9754 9.9356 16.9858C9.886 16.9962 9.8408 17.001 9.8 17.0002C9.3 17.0002 8.8752 16.8254 8.5256 16.4758C8.176 16.1262 8.0008 15.701 8 15.2002C7.9992 14.6994 8.1744 14.2746 8.5256 13.9258C8.8768 13.577 9.3016 13.4018 9.8 13.4002C10.2984 13.3986 10.7236 13.5738 11.0756 13.9258C11.4276 14.2778 11.6024 14.7026 11.6 15.2002C11.6 15.3402 11.5848 15.4702 11.5544 15.5902C11.524 15.7102 11.4892 15.8202 11.45 15.9202L15.2 17.6002L18.95 12.4702C18.73 12.3102 18.55 12.1002 18.41 11.8402C18.27 11.5802 18.2 11.3002 18.2 11.0002C18.2 10.5002 18.3752 10.075 18.7256 9.7246C19.076 9.3742 19.5008 9.1994 20 9.2002C20.4992 9.201 20.9244 9.3762 21.2756 9.7258C21.6268 10.0754 21.8016 10.5002 21.8 11.0002C21.8 11.3002 21.73 11.5802 21.59 11.8402C21.45 12.1002 21.27 12.3102 21.05 12.4702L24.8 17.6002L28.55 15.9202C28.51 15.8202 28.4748 15.7102 28.4444 15.5902C28.414 15.4702 28.3992 15.3402 28.4 15.2002C28.4 14.7002 28.5752 14.275 28.9256 13.9246C29.276 13.5742 29.7008 13.3994 30.2 13.4002C30.6992 13.401 31.1244 13.5762 31.4756 13.9258C31.8268 14.2754 32.0016 14.7002 32 15.2002C31.9984 15.7002 31.8236 16.1254 31.4756 16.4758C31.1276 16.8262 30.7024 17.001 30.2 17.0002C30.16 17.0002 30.1152 16.9954 30.0656 16.9858C30.016 16.9762 29.9708 16.971 29.93 16.9702L28.73 24.5902C28.63 25.1702 28.3552 25.6502 27.9056 26.0302C27.456 26.4102 26.9408 26.6002 26.36 26.6002H13.64Z" fill="#FFC300"/>
</svg>
