<svg width="26" height="22" viewBox="0 0 26 22" fill="none" xmlns="http://www.w3.org/2000/svg">
<path d="M3.25 11.083C7.15 2.41634 18.85 2.41634 22.75 11.083" stroke="#C2C2C2" stroke-width="1.2" stroke-linecap="round" stroke-linejoin="round"/>
<path d="M13 15.4163C12.5732 15.4163 12.1506 15.3322 11.7563 15.1689C11.362 15.0055 11.0037 14.7661 10.7019 14.4644C10.4001 14.1626 10.1607 13.8043 9.99739 13.41C9.83406 13.0157 9.75 12.5931 9.75 12.1663C9.75 11.7395 9.83406 11.3168 9.99739 10.9225C10.1607 10.5282 10.4001 10.17 10.7019 9.86816C11.0037 9.56637 11.362 9.32698 11.7563 9.16365C12.1506 9.00032 12.5732 8.91626 13 8.91626C13.862 8.91626 14.6886 9.25867 15.2981 9.86816C15.9076 10.4777 16.25 11.3043 16.25 12.1663C16.25 13.0282 15.9076 13.8549 15.2981 14.4644C14.6886 15.0739 13.862 15.4163 13 15.4163Z" fill="#C2C2C2" stroke="#C2C2C2" stroke-width="1.2" stroke-linecap="round" stroke-linejoin="round"/>
</svg>
