<svg width="24" height="24" viewBox="0 0 24 24" fill="none" xmlns="http://www.w3.org/2000/svg">
<path d="M11.9998 22C17.4609 22 22 17.4706 22 12C22 6.53903 17.4508 2 11.9898 2C6.51946 2 2 6.53903 2 12C2 17.4706 6.52908 22 11.9998 22ZM12.0002 20.3335C7.37199 20.3335 3.67535 16.6273 3.67535 12C3.67535 7.38191 7.36195 3.66653 11.9898 3.66653C16.6075 3.66653 20.323 7.38233 20.333 12C20.3426 16.6277 16.6171 20.3335 11.9994 20.3335M11.9898 13.7745C12.4599 13.7745 12.7247 13.5097 12.7344 13.0002L12.8816 7.82364C12.8916 7.32335 12.4993 6.95106 11.9797 6.95106C11.4501 6.95106 11.0778 7.31373 11.0874 7.8136L11.215 13.0002C11.2247 13.5 11.4995 13.7745 11.9898 13.7745ZM11.9898 16.9607C12.5482 16.9607 13.0481 16.5097 13.0481 15.9413C13.0481 15.3628 12.5582 14.9214 11.9898 14.9214C11.4112 14.9214 10.9306 15.3724 10.9306 15.9413C10.9306 16.5001 11.4208 16.9607 11.9898 16.9607Z" fill="#60A4F1"/>
</svg>
