<svg width="50" height="50" viewBox="0 0 50 50" fill="none" xmlns="http://www.w3.org/2000/svg">
<rect width="50" height="50" rx="12" fill="white"/>
<path d="M26.3888 21.9577H23.896C23.8001 21.4251 23.6216 20.9563 23.3606 20.5515C23.0996 20.1467 22.78 19.8031 22.4018 19.5208C22.0236 19.2385 21.6001 19.0254 21.1314 18.8816C20.668 18.7377 20.1752 18.6658 19.6532 18.6658C18.7104 18.6658 17.8661 18.9029 17.1204 19.377C16.38 19.851 15.794 20.5462 15.3626 21.4624C14.9364 22.3786 14.7234 23.4972 14.7234 24.8182C14.7234 26.1499 14.9364 27.2738 15.3626 28.19C15.794 29.1062 16.3826 29.7987 17.1284 30.2674C17.8741 30.7362 18.7131 30.9705 19.6452 30.9705C20.1619 30.9705 20.652 30.9013 21.1154 30.7628C21.5842 30.619 22.0076 30.4086 22.3858 30.1316C22.764 29.8546 23.0836 29.5163 23.3446 29.1168C23.611 28.712 23.7947 28.2486 23.896 27.7266L26.3888 27.7346C26.2557 28.5389 25.9973 29.2793 25.6138 29.9558C25.2356 30.627 24.7482 31.2076 24.1516 31.6976C23.5604 32.1824 22.8839 32.5579 22.1222 32.8242C21.3604 33.0906 20.5295 33.2237 19.6293 33.2237C18.2124 33.2237 16.9499 32.8881 15.842 32.217C14.734 31.5405 13.8604 30.5737 13.2212 29.3166C12.5874 28.0595 12.2704 26.56 12.2704 24.8182C12.2704 23.071 12.59 21.5716 13.2292 20.3198C13.8684 19.0627 14.742 18.0985 15.85 17.4274C16.9579 16.7509 18.2177 16.4126 19.6293 16.4126C20.4975 16.4126 21.3072 16.5378 22.0582 16.7882C22.8146 17.0332 23.4938 17.3954 24.0957 17.8748C24.6976 18.3489 25.1957 18.9295 25.5898 19.6167C25.984 20.2985 26.2504 21.0788 26.3888 21.9577ZM35.3277 16.6364V33H32.8508V19.1133H32.7549L28.8398 21.6701V19.305L32.9227 16.6364H35.3277Z" fill="#FFAB4B"/>
</svg>
