<svg width="50" height="50" viewBox="0 0 50 50" fill="none" xmlns="http://www.w3.org/2000/svg">
<rect width="50" height="50" rx="12" fill="white"/>
<path d="M12.2978 33V16.6364H18.2903C19.4515 16.6364 20.413 16.8281 21.1747 17.2116C21.9364 17.5898 22.5064 18.1039 22.8846 18.7537C23.2628 19.3983 23.4519 20.1254 23.4519 20.935C23.4519 21.6168 23.3267 22.1921 23.0763 22.6609C22.826 23.1243 22.4904 23.4972 22.0696 23.7795C21.6541 24.0565 21.196 24.2589 20.6953 24.3867V24.5465C21.2386 24.5732 21.7686 24.7489 22.2853 25.0739C22.8074 25.3935 23.2388 25.8489 23.5797 26.4402C23.9206 27.0314 24.0911 27.7505 24.0911 28.5975C24.0911 29.4338 23.894 30.1848 23.4998 30.8507C23.111 31.5112 22.5091 32.0359 21.6941 32.4247C20.8791 32.8082 19.8377 33 18.57 33H12.2978ZM14.7667 30.8826H18.3303C19.5128 30.8826 20.3597 30.6536 20.8711 30.1955C21.3825 29.7374 21.6381 29.1648 21.6381 28.4776C21.6381 27.9609 21.5076 27.4869 21.2466 27.0554C20.9856 26.6239 20.6127 26.2804 20.128 26.0247C19.6486 25.769 19.0787 25.6412 18.4181 25.6412H14.7667V30.8826ZM14.7667 23.7156H18.0746C18.6286 23.7156 19.1266 23.609 19.5687 23.396C20.0162 23.1829 20.3704 22.8846 20.6314 22.5011C20.8977 22.1122 21.0309 21.6541 21.0309 21.1268C21.0309 20.4503 20.7939 19.883 20.3198 19.4249C19.8457 18.9668 19.1186 18.7377 18.1385 18.7377H14.7667V23.7156ZM26.7957 33V31.2102L32.3328 25.4734C32.9241 24.8501 33.4115 24.3042 33.795 23.8354C34.1839 23.3613 34.4742 22.9112 34.6659 22.4851C34.8577 22.0589 34.9536 21.6062 34.9536 21.1268C34.9536 20.5835 34.8257 20.1147 34.57 19.7205C34.3144 19.321 33.9655 19.0147 33.5233 18.8017C33.0812 18.5833 32.5832 18.4741 32.0292 18.4741C31.4433 18.4741 30.9319 18.5939 30.4951 18.8336C30.0583 19.0733 29.7227 19.4116 29.4884 19.8484C29.254 20.2852 29.1368 20.7965 29.1368 21.3825H26.7797C26.7797 20.3864 27.0088 19.5154 27.4669 18.7697C27.925 18.024 28.5535 17.446 29.3525 17.0359C30.1515 16.6204 31.0597 16.4126 32.0771 16.4126C33.1052 16.4126 34.0107 16.6177 34.7938 17.0279C35.5821 17.4327 36.1974 17.9867 36.6395 18.6898C37.0816 19.3876 37.3026 20.176 37.3026 21.0549C37.3026 21.6621 37.1881 22.256 36.9591 22.8366C36.7354 23.4173 36.3438 24.0645 35.7845 24.7782C35.2252 25.4867 34.4475 26.3469 33.4514 27.359L30.1995 30.7628V30.8826H37.5663V33H26.7957Z" fill="#79C276"/>
</svg>
