<svg width="40" height="40" viewBox="0 0 40 40" fill="none" xmlns="http://www.w3.org/2000/svg">
<rect width="40" height="40" rx="10" fill="#E5F8DD"/>
<path d="M10.9382 27V13.909H15.7322C16.6612 13.909 17.4304 14.062 18.0398 14.369C18.6491 14.672 19.1051 15.083 19.4077 15.603C19.7102 16.119 19.8615 16.7 19.8615 17.348C19.8615 17.893 19.7614 18.354 19.5611 18.729C19.3608 19.099 19.0923 19.398 18.7557 19.624C18.4233 19.845 18.0568 20.007 17.6562 20.109V20.237C18.0909 20.259 18.5149 20.399 18.9283 20.659C19.3459 20.915 19.6911 21.279 19.9638 21.752C20.2365 22.225 20.3729 22.8 20.3729 23.478C20.3729 24.147 20.2152 24.748 19.8999 25.281C19.5888 25.809 19.1072 26.229 18.4553 26.54C17.8033 26.847 16.9702 27 15.956 27H10.9382ZM12.9134 25.306H15.7642C16.7102 25.306 17.3878 25.123 17.7969 24.756C18.206 24.39 18.4105 23.932 18.4105 23.382C18.4105 22.969 18.3061 22.589 18.0973 22.244C17.8885 21.899 17.5902 21.624 17.2024 21.42C16.8189 21.215 16.3629 21.113 15.8345 21.113H12.9134V25.306ZM12.9134 19.572H15.5597C16.0028 19.572 16.4013 19.487 16.755 19.317C17.1129 19.146 17.3963 18.908 17.6051 18.601C17.8182 18.29 17.9247 17.923 17.9247 17.501C17.9247 16.96 17.7351 16.506 17.3558 16.14C16.9766 15.773 16.3949 15.59 15.6108 15.59H12.9134V19.572ZM27.5032 13.909V27H25.5217V15.891H25.445L22.3129 17.936V16.044L25.5792 13.909H27.5032Z" fill="#79C276"/>
</svg>
