<svg width="40" height="40" viewBox="0 0 40 40" fill="none" xmlns="http://www.w3.org/2000/svg">
<rect width="40" height="40" rx="10" fill="#E5F8DD"/>
<path d="M9.9382 27V13.909H14.7322C15.6612 13.909 16.4304 14.062 17.0398 14.369C17.6491 14.672 18.1051 15.083 18.4077 15.603C18.7102 16.119 18.8615 16.7 18.8615 17.348C18.8615 17.893 18.7614 18.354 18.5611 18.729C18.3608 19.099 18.0923 19.398 17.7557 19.624C17.4233 19.845 17.0568 20.007 16.6562 20.109V20.237C17.0909 20.259 17.5149 20.399 17.9283 20.659C18.3459 20.915 18.6911 21.279 18.9638 21.752C19.2365 22.225 19.3729 22.8 19.3729 23.478C19.3729 24.147 19.2152 24.748 18.8999 25.281C18.5888 25.809 18.1072 26.229 17.4553 26.54C16.8033 26.847 15.9702 27 14.956 27H9.9382ZM11.9134 25.306H14.7642C15.7102 25.306 16.3878 25.123 16.7969 24.756C17.206 24.39 17.4105 23.932 17.4105 23.382C17.4105 22.969 17.3061 22.589 17.0973 22.244C16.8885 21.899 16.5902 21.624 16.2024 21.42C15.8189 21.215 15.3629 21.113 14.8345 21.113H11.9134V25.306ZM11.9134 19.572H14.5597C15.0028 19.572 15.4013 19.487 15.755 19.317C16.1129 19.146 16.3963 18.908 16.6051 18.601C16.8182 18.29 16.9247 17.923 16.9247 17.501C16.9247 16.96 16.7351 16.506 16.3558 16.14C15.9766 15.773 15.3949 15.59 14.6108 15.59H11.9134V19.572ZM21.5366 27V25.568L25.9663 20.979C26.4393 20.48 26.8292 20.043 27.136 19.668C27.4471 19.289 27.6793 18.929 27.8327 18.588C27.9862 18.247 28.0629 17.885 28.0629 17.501C28.0629 17.067 27.9606 16.692 27.756 16.376C27.5515 16.057 27.2724 15.812 26.9187 15.641C26.565 15.467 26.1665 15.379 25.7234 15.379C25.2546 15.379 24.8455 15.475 24.4961 15.667C24.1467 15.859 23.8782 16.129 23.6907 16.479C23.5032 16.828 23.4094 17.237 23.4094 17.706H21.5238C21.5238 16.909 21.707 16.212 22.0735 15.616C22.44 15.019 22.9428 14.557 23.582 14.229C24.2212 13.896 24.9478 13.73 25.7617 13.73C26.5842 13.73 27.3086 13.894 27.935 14.222C28.5657 14.546 29.0579 14.989 29.4116 15.552C29.7653 16.11 29.9421 16.741 29.9421 17.444C29.9421 17.93 29.8505 18.405 29.6673 18.869C29.4883 19.334 29.1751 19.852 28.7276 20.423C28.2802 20.989 27.658 21.678 26.8612 22.487L24.2596 25.21V25.306H30.1531V27H21.5366Z" fill="#79C276"/>
</svg>
