<svg width="50" height="50" viewBox="0 0 50 50" fill="none" xmlns="http://www.w3.org/2000/svg">
<rect width="50" height="50" rx="12" fill="white"/>
<path d="M24.8888 21.9577H22.396C22.3001 21.4251 22.1216 20.9563 21.8606 20.5515C21.5996 20.1467 21.28 19.8031 20.9018 19.5208C20.5236 19.2385 20.1001 19.0254 19.6314 18.8816C19.168 18.7377 18.6752 18.6658 18.1532 18.6658C17.2104 18.6658 16.3661 18.9029 15.6204 19.377C14.88 19.851 14.294 20.5462 13.8626 21.4624C13.4364 22.3786 13.2234 23.4972 13.2234 24.8182C13.2234 26.1499 13.4364 27.2738 13.8626 28.19C14.294 29.1062 14.8826 29.7987 15.6284 30.2674C16.3741 30.7362 17.2131 30.9705 18.1452 30.9705C18.6619 30.9705 19.152 30.9013 19.6154 30.7628C20.0842 30.619 20.5076 30.4086 20.8858 30.1316C21.264 29.8546 21.5836 29.5163 21.8446 29.1168C22.111 28.712 22.2947 28.2486 22.396 27.7266L24.8888 27.7346C24.7557 28.5389 24.4973 29.2793 24.1138 29.9558C23.7356 30.627 23.2482 31.2076 22.6516 31.6976C22.0604 32.1824 21.3839 32.5579 20.6222 32.8242C19.8604 33.0906 19.0295 33.2237 18.1293 33.2237C16.7124 33.2237 15.4499 32.8881 14.342 32.217C13.234 31.5405 12.3604 30.5737 11.7212 29.3166C11.0874 28.0595 10.7704 26.56 10.7704 24.8182C10.7704 23.071 11.09 21.5716 11.7292 20.3198C12.3684 19.0627 13.242 18.0985 14.35 17.4274C15.4579 16.7509 16.7177 16.4126 18.1293 16.4126C18.9975 16.4126 19.8072 16.5378 20.5582 16.7882C21.3146 17.0332 21.9938 17.3954 22.5957 17.8748C23.1976 18.3489 23.6957 18.9295 24.0898 19.6167C24.484 20.2985 24.7504 21.0788 24.8888 21.9577ZM27.6195 33V31.2102L33.1566 25.4734C33.7478 24.8501 34.2352 24.3042 34.6187 23.8354C35.0076 23.3613 35.2979 22.9112 35.4897 22.4851C35.6814 22.0589 35.7773 21.6062 35.7773 21.1268C35.7773 20.5835 35.6495 20.1147 35.3938 19.7205C35.1381 19.321 34.7892 19.0147 34.3471 18.8017C33.905 18.5833 33.4069 18.4741 32.8529 18.4741C32.267 18.4741 31.7556 18.5939 31.3188 18.8336C30.8821 19.0733 30.5465 19.4116 30.3121 19.8484C30.0777 20.2852 29.9605 20.7965 29.9605 21.3825H27.6035C27.6035 20.3864 27.8325 19.5154 28.2906 18.7697C28.7487 18.024 29.3773 17.446 30.1763 17.0359C30.9753 16.6204 31.8835 16.4126 32.9009 16.4126C33.9289 16.4126 34.8345 16.6177 35.6175 17.0279C36.4059 17.4327 37.0211 17.9867 37.4632 18.6898C37.9053 19.3876 38.1264 20.176 38.1264 21.0549C38.1264 21.6621 38.0119 22.256 37.7828 22.8366C37.5591 23.4173 37.1676 24.0645 36.6083 24.7782C36.049 25.4867 35.2713 26.3469 34.2752 27.359L31.0232 30.7628V30.8826H38.39V33H27.6195Z" fill="#FFAB4B"/>
</svg>
