<svg width="50" height="50" viewBox="0 0 50 50" fill="none" xmlns="http://www.w3.org/2000/svg">
<rect width="50" height="50" rx="12" fill="white"/>
<path d="M13.18 33H10.5593L16.448 16.6364H19.3004L25.1891 33H22.5684L17.9421 19.6087H17.8143L13.18 33ZM13.6195 26.592H22.1209V28.6694H13.6195V26.592ZM27.3284 33V31.2102L32.8655 25.4734C33.4568 24.8501 33.9442 24.3042 34.3277 23.8354C34.7166 23.3613 35.0069 22.9112 35.1986 22.4851C35.3904 22.0589 35.4863 21.6062 35.4863 21.1268C35.4863 20.5835 35.3584 20.1147 35.1028 19.7205C34.8471 19.321 34.4982 19.0147 34.0561 18.8017C33.6139 18.5833 33.1159 18.4741 32.5619 18.4741C31.976 18.4741 31.4646 18.5939 31.0278 18.8336C30.591 19.0733 30.2555 19.4116 30.0211 19.8484C29.7867 20.2852 29.6695 20.7965 29.6695 21.3825H27.3125C27.3125 20.3864 27.5415 19.5154 27.9996 18.7697C28.4577 18.024 29.0862 17.446 29.8853 17.0359C30.6843 16.6204 31.5925 16.4126 32.6099 16.4126C33.6379 16.4126 34.5435 16.6177 35.3265 17.0279C36.1148 17.4327 36.7301 17.9867 37.1722 18.6898C37.6143 19.3876 37.8354 20.176 37.8354 21.0549C37.8354 21.6621 37.7208 22.256 37.4918 22.8366C37.2681 23.4173 36.8766 24.0645 36.3173 24.7782C35.7579 25.4867 34.9802 26.3469 33.9842 27.359L30.7322 30.7628V30.8826H38.099V33H27.3284Z" fill="#60A4F1"/>
</svg>
