<svg width="40" height="40" viewBox="0 0 40 40" fill="none" xmlns="http://www.w3.org/2000/svg">
<rect width="40" height="40" rx="10" fill="#FDF1D4"/>
<path d="M19.8111 18.166H17.8168C17.7401 17.74 17.5973 17.365 17.3885 17.041C17.1797 16.717 16.924 16.442 16.6214 16.217C16.3189 15.991 15.9801 15.82 15.6051 15.705C15.2344 15.59 14.8402 15.533 14.4226 15.533C13.6683 15.533 12.9929 15.722 12.3963 16.102C11.804 16.481 11.3352 17.037 10.9901 17.77C10.6491 18.503 10.4787 19.398 10.4787 20.455C10.4787 21.52 10.6491 22.419 10.9901 23.152C11.3352 23.885 11.8061 24.439 12.4027 24.814C12.9993 25.189 13.6705 25.376 14.4162 25.376C14.8295 25.376 15.2216 25.321 15.5923 25.21C15.9673 25.095 16.3061 24.927 16.6087 24.705C16.9112 24.484 17.1669 24.213 17.3757 23.893C17.5888 23.57 17.7358 23.199 17.8168 22.781L19.8111 22.788C19.7045 23.431 19.4979 24.023 19.1911 24.565C18.8885 25.102 18.4986 25.566 18.0213 25.958C17.5483 26.346 17.0071 26.646 16.3977 26.859C15.7884 27.072 15.1236 27.179 14.4034 27.179C13.2699 27.179 12.2599 26.911 11.3736 26.374C10.4872 25.832 9.7884 25.059 9.277 24.053C8.7699 23.048 8.5163 21.848 8.5163 20.455C8.5163 19.057 8.772 17.857 9.2834 16.856C9.7947 15.85 10.4936 15.079 11.38 14.542C12.2663 14.001 13.2741 13.73 14.4034 13.73C15.098 13.73 15.7457 13.83 16.3466 14.031C16.9517 14.227 17.495 14.516 17.9766 14.9C18.4581 15.279 18.8565 15.744 19.1719 16.293C19.4872 16.839 19.7003 17.463 19.8111 18.166ZM21.9956 27V25.568L26.4252 20.979C26.8983 20.48 27.2882 20.043 27.595 19.668C27.9061 19.289 28.1383 18.929 28.2917 18.588C28.4451 18.247 28.5218 17.885 28.5218 17.501C28.5218 17.067 28.4196 16.692 28.215 16.376C28.0105 16.057 27.7314 15.812 27.3777 15.641C27.024 15.467 26.6255 15.379 26.1824 15.379C25.7136 15.379 25.3045 15.475 24.9551 15.667C24.6056 15.859 24.3372 16.129 24.1497 16.479C23.9622 16.828 23.8684 17.237 23.8684 17.706H21.9828C21.9828 16.909 22.166 16.212 22.5325 15.616C22.899 15.019 23.4018 14.557 24.041 14.229C24.6802 13.896 25.4068 13.73 26.2207 13.73C27.0431 13.73 27.7676 13.894 28.394 14.222C29.0247 14.546 29.5169 14.989 29.8706 15.552C30.2243 16.11 30.4011 16.741 30.4011 17.444C30.4011 17.93 30.3095 18.405 30.1262 18.869C29.9473 19.334 29.6341 19.852 29.1866 20.423C28.7392 20.989 28.117 21.678 27.3201 22.487L24.7186 25.21V25.306H30.612V27H21.9956Z" fill="#FFAB4B"/>
</svg>
