<svg width="50" height="50" viewBox="0 0 50 50" fill="none" xmlns="http://www.w3.org/2000/svg">
<rect width="50" height="50" rx="12" fill="white"/>
<path d="M13.7978 33V16.6364H19.7903C20.9515 16.6364 21.913 16.8281 22.6747 17.2116C23.4364 17.5898 24.0064 18.1039 24.3846 18.7537C24.7628 19.3983 24.9519 20.1254 24.9519 20.935C24.9519 21.6168 24.8267 22.1921 24.5763 22.6609C24.326 23.1243 23.9904 23.4972 23.5696 23.7795C23.1541 24.0565 22.696 24.2589 22.1953 24.3867V24.5465C22.7386 24.5732 23.2686 24.7489 23.7853 25.0739C24.3074 25.3935 24.7388 25.8489 25.0797 26.4402C25.4206 27.0314 25.5911 27.7505 25.5911 28.5975C25.5911 29.4338 25.394 30.1848 24.9998 30.8507C24.611 31.5112 24.0091 32.0359 23.1941 32.4247C22.3791 32.8082 21.3377 33 20.07 33H13.7978ZM16.2667 30.8826H19.8303C21.0128 30.8826 21.8597 30.6536 22.3711 30.1955C22.8825 29.7374 23.1381 29.1648 23.1381 28.4776C23.1381 27.9609 23.0076 27.4869 22.7466 27.0554C22.4856 26.6239 22.1127 26.2804 21.628 26.0247C21.1486 25.769 20.5787 25.6412 19.9181 25.6412H16.2667V30.8826ZM16.2667 23.7156H19.5746C20.1286 23.7156 20.6266 23.609 21.0687 23.396C21.5162 23.1829 21.8704 22.8846 22.1314 22.5011C22.3977 22.1122 22.5309 21.6541 22.5309 21.1268C22.5309 20.4503 22.2939 19.883 21.8198 19.4249C21.3457 18.9668 20.6186 18.7377 19.6385 18.7377H16.2667V23.7156ZM34.504 16.6364V33H32.0271V19.1133H31.9312L28.0161 21.6701V19.305L32.099 16.6364H34.504Z" fill="#79C276"/>
</svg>
