<svg width="40" height="40" viewBox="0 0 40 40" fill="none" xmlns="http://www.w3.org/2000/svg">
<rect width="40" height="40" rx="10" fill="#E6F2FF"/>
<path d="M10.544 27H8.4474L13.1584 13.9091H15.4403L20.1513 27H18.0547L14.3537 16.2869H14.2514L10.544 27ZM10.8956 21.874H17.6967V23.536H10.8956V21.874ZM21.8627 27V25.568L26.2924 20.979C26.7654 20.48 27.1554 20.043 27.4622 19.6683C27.7733 19.2891 28.0055 18.929 28.1589 18.5881C28.3123 18.2472 28.389 17.8849 28.389 17.5014C28.389 17.0668 28.2868 16.6918 28.0822 16.3764C27.8777 16.0568 27.5985 15.8118 27.2449 15.6413C26.8912 15.4666 26.4927 15.3793 26.0495 15.3793C25.5808 15.3793 25.1717 15.4751 24.8223 15.6669C24.4728 15.8587 24.2044 16.1293 24.0169 16.4787C23.8294 16.8281 23.7356 17.2372 23.7356 17.706H21.85C21.85 16.9091 22.0332 16.2124 22.3997 15.6158C22.7662 15.0192 23.269 14.5568 23.9082 14.2287C24.5474 13.8963 25.274 13.7301 26.0879 13.7301C26.9103 13.7301 27.6348 13.8942 28.2612 14.2223C28.8919 14.5462 29.3841 14.9893 29.7377 15.5518C30.0914 16.1101 30.2683 16.7408 30.2683 17.4439C30.2683 17.9297 30.1767 18.4048 29.9934 18.8693C29.8145 19.3338 29.5012 19.8516 29.0538 20.423C28.6064 20.989 27.9842 21.678 27.1873 22.487L24.5858 25.21V25.306H30.4792V27H21.8627Z" fill="#60A4F1"/>
</svg>
