<svg width="40" height="40" viewBox="0 0 40 40" fill="none" xmlns="http://www.w3.org/2000/svg">
<rect width="40" height="40" rx="10" fill="#FDF1D4"/>
<path d="M21.3111 18.166H19.3168C19.2401 17.74 19.0973 17.365 18.8885 17.041C18.6797 16.717 18.424 16.442 18.1214 16.217C17.8189 15.991 17.4801 15.82 17.1051 15.705C16.7344 15.59 16.3402 15.533 15.9226 15.533C15.1683 15.533 14.4929 15.722 13.8963 16.102C13.304 16.481 12.8352 17.037 12.4901 17.77C12.1491 18.503 11.9787 19.398 11.9787 20.455C11.9787 21.52 12.1491 22.419 12.4901 23.152C12.8352 23.885 13.3061 24.439 13.9027 24.814C14.4993 25.189 15.1705 25.376 15.9162 25.376C16.3295 25.376 16.7216 25.321 17.0923 25.21C17.4673 25.095 17.8061 24.927 18.1087 24.705C18.4112 24.484 18.6669 24.213 18.8757 23.893C19.0888 23.57 19.2358 23.199 19.3168 22.781L21.3111 22.788C21.2045 23.431 20.9979 24.023 20.6911 24.565C20.3885 25.102 19.9986 25.566 19.5213 25.958C19.0483 26.346 18.5071 26.646 17.8977 26.859C17.2884 27.072 16.6236 27.179 15.9034 27.179C14.7699 27.179 13.7599 26.911 12.8736 26.374C11.9872 25.832 11.2884 25.059 10.777 24.053C10.2699 23.048 10.0163 21.848 10.0163 20.455C10.0163 19.057 10.272 17.857 10.7834 16.856C11.2947 15.85 11.9936 15.079 12.88 14.542C13.7663 14.001 14.7741 13.73 15.9034 13.73C16.598 13.73 17.2457 13.83 17.8466 14.031C18.4517 14.227 18.995 14.516 19.4766 14.9C19.9581 15.279 20.3565 15.744 20.6719 16.293C20.9872 16.839 21.2003 17.463 21.3111 18.166ZM28.4622 13.909V27H26.4806V15.891H26.4039L23.2718 17.936V16.044L26.5382 13.909H28.4622Z" fill="#FFAB4B"/>
</svg>
