<svg width="128" height="26" viewBox="0 0 128 26" fill="none" xmlns="http://www.w3.org/2000/svg">
<g clip-path="url(#clip0_3047_16118)">
<path d="M51.9373 25.3796L46.7183 15.6456C48.1489 15.0512 49.308 14.1597 50.1666 12.9892C51.1168 11.6847 51.5972 10.092 51.5972 8.25558C51.5972 5.73636 50.7553 3.70787 49.0944 2.22651C47.4488 0.760389 45.2038 0.0151367 42.4204 0.0151367H39.7743C35.7632 0.0151367 33.7515 0.0151367 32.4185 1.34714C31.0855 2.67915 31.0855 4.69087 31.0855 8.69755V25.9847H35.6579V16.4655H42.0879L46.9882 25.7652L47.1041 25.9847H52.2622L51.9373 25.3796ZM35.6594 6.9754C35.6594 5.53061 35.6594 4.8067 36.024 4.44245C36.3885 4.07821 37.1129 4.07821 38.5587 4.07821H42.2526C43.7641 4.07821 44.9613 4.45769 45.8154 5.20752C46.6649 5.95429 47.0782 6.95101 47.0782 8.25711C47.0782 9.5632 46.6649 10.5675 45.8139 11.325C44.972 12.0733 43.7808 12.4528 42.2709 12.4528H35.661L35.6594 6.9754Z" fill="#1B1B1C"/>
<path d="M26.6717 2.22956C25.0246 0.760389 22.778 0.0151367 19.9947 0.0151367H17.3973C13.3862 0.0151367 11.3745 0.0151367 10.0416 1.34714C8.70859 2.67915 8.70859 4.69087 8.70859 8.69755V25.9847H13.2825V16.5174H19.8787C21.7333 16.5174 23.3728 16.1867 24.7501 15.5328C26.1456 14.8592 27.2437 13.893 28.0139 12.6616C28.7841 11.418 29.1745 9.93659 29.1745 8.25711C29.173 5.73788 28.3311 3.70939 26.6717 2.22956ZM13.2825 6.99216C13.2825 5.54738 13.2825 4.82346 13.647 4.45922C14.0115 4.09497 14.7375 4.09497 16.1818 4.09497H19.8101C21.3215 4.09497 22.5188 4.47446 23.3728 5.22428L23.3744 5.22581L23.3759 5.22733C24.233 5.96191 24.6509 6.95406 24.6509 8.25711C24.6509 9.56015 24.233 10.566 23.3713 11.3235C22.5188 12.0733 21.32 12.4528 19.8101 12.4528H13.2825V6.99216Z" fill="#1B1B1C"/>
<path d="M4.96438 0.425893V0.0144043H4.50531C3.40873 0.0205004 2.37774 0.450278 1.60144 1.22449C0.826664 2.00022 0.396573 3.03047 0.390472 4.12624V4.17349V25.574V25.9854H4.96438V25.574V0.425893Z" fill="#1B1B1C"/>
<path d="M61.1102 26V0.545454H69.7111C71.708 0.545454 73.3404 0.905894 74.6081 1.62677C75.8842 2.33937 76.8288 3.30469 77.4419 4.52273C78.0551 5.74077 78.3617 7.09967 78.3617 8.59943C78.3617 10.0992 78.0551 11.4622 77.4419 12.6886C76.837 13.9149 75.9007 14.8926 74.633 15.6218C73.3652 16.3427 71.7412 16.7031 69.7608 16.7031H63.596V13.9688H69.6614C71.0286 13.9688 72.1265 13.7326 72.9551 13.2603C73.7837 12.788 74.3844 12.15 74.7573 11.3462C75.1384 10.5342 75.329 9.61861 75.329 8.59943C75.329 7.58026 75.1384 6.6688 74.7573 5.86506C74.3844 5.06132 73.7795 4.43158 72.9426 3.97585C72.1058 3.51184 70.9954 3.27983 69.6117 3.27983H64.1926V26H61.1102ZM97.5915 26L88.8415 14.3168H85.7094V26H82.627V0.545454H85.7094V11.5824H87.0518L97.2435 0.545454H100.923L90.6313 11.7315L101.271 26H97.5915ZM104.554 0.545454H107.587V20.581H107.835L121.756 0.545454H124.739V26H121.656V6.0142H121.408L107.537 26H104.554V0.545454Z" fill="#B41E23"/>
</g>
<defs>
<clipPath id="clip0_3047_16118">
<rect width="128" height="26" fill="white"/>
</clipPath>
</defs>
</svg>
