<svg width="22" height="22" viewBox="0 0 22 22" fill="none" xmlns="http://www.w3.org/2000/svg">
<path d="M3.2002 3.51562C5.73414 3.52652 7.61641 3.87542 8.97754 4.47754C9.48639 4.70253 9.83736 4.89937 10.0615 5.18164C10.285 5.4632 10.3847 5.83239 10.3848 6.40723V18.4658C9.61298 17.7743 8.87764 17.3295 7.66504 17.0576C6.44261 16.7836 4.73509 16.6849 2.01562 16.6846V3.51562H3.2002ZM18.7998 3.51562H19.9844V16.6846C17.2649 16.6849 15.5574 16.7836 14.335 17.0576C13.1224 17.3295 12.387 17.7743 11.6152 18.4658V6.40723C11.6153 5.83239 11.715 5.4632 11.9385 5.18164C12.1626 4.89937 12.5136 4.70253 13.0225 4.47754C14.2985 3.91307 16.0325 3.57102 18.332 3.52148L18.7998 3.51562Z" fill="#C2C2C2" stroke="#C2C2C2" stroke-width="0.03125"/>
</svg>
