<svg width="22" height="22" viewBox="0 0 22 22" fill="none" xmlns="http://www.w3.org/2000/svg">
<path d="M5.40565 10.7147L10.9926 13.5087L11.0004 13.495L10.9887 13.5184L11.0072 13.5087L16.5941 10.7147H16.8461L17.4056 14.0692C16.2808 14.2209 14.9397 14.8739 13.7084 15.6434C13.0045 16.0834 12.3447 16.5662 11.809 17.035C11.4873 17.3165 11.2171 17.587 10.9994 17.8534C10.7817 17.5872 10.5123 17.3163 10.1908 17.035C9.65502 16.5662 8.99533 16.0834 8.29139 15.6434C7.05963 14.8736 5.71827 14.2206 4.59315 14.0692L5.15369 10.7147H5.40565ZM19.5668 10.5868L19.5551 10.5829L12.8627 8.52429L11.6967 8.16687V8.16492L11.6879 8.16199L10.9047 7.92078L11.015 7.56726L11.0209 7.54675H11.0004C10.8139 7.54675 10.6342 7.62095 10.5023 7.75281C10.3706 7.88461 10.2973 8.06356 10.2972 8.24988C10.2972 8.43618 10.3707 8.61512 10.5023 8.74695C10.6342 8.87881 10.8139 8.953 11.0004 8.953C11.1026 8.95273 11.2027 8.92884 11.2953 8.88562L15.7357 10.244L10.9994 12.6122L1.00428 7.61511L10.9994 3.86707L20.9945 7.61511L17.7328 9.24597L17.7709 9.25769L20.309 10.038V11.1278L20.3158 11.1317C20.4063 11.1933 20.4804 11.2762 20.5316 11.3729C20.5828 11.4697 20.6097 11.5779 20.6097 11.6874C20.6097 11.7993 20.5811 11.9094 20.5277 12.0077C20.4743 12.1061 20.397 12.1899 20.3031 12.2509L20.2933 12.2567L20.2963 12.2684C20.4522 12.8581 20.5305 13.8226 20.5697 14.7733C20.6087 15.7184 20.6088 16.6482 20.6088 17.1786C20.4402 17.2921 20.3144 17.3762 20.2094 17.4315C20.1031 17.4875 20.0201 17.5135 19.9379 17.5126C19.8556 17.5116 19.7719 17.4842 19.6654 17.4276C19.5603 17.3717 19.4344 17.289 19.266 17.1796C19.266 16.6493 19.2661 15.719 19.3051 14.7733C19.3443 13.8223 19.4225 12.8569 19.5785 12.2675L19.5814 12.2567L19.5717 12.2509C19.4778 12.19 19.4005 12.106 19.3471 12.0077C19.2937 11.9094 19.2661 11.7992 19.266 11.6874C19.2662 11.578 19.2929 11.4705 19.3441 11.3739C19.3954 11.2772 19.4695 11.1942 19.5599 11.1327L19.5668 11.1278V10.5868Z" fill="#C2C2C2" stroke="#C2C2C2" stroke-width="0.03125"/>
</svg>
