<svg width="20" height="20" viewBox="0 0 20 20" fill="none" xmlns="http://www.w3.org/2000/svg">
<path fill-rule="evenodd" clip-rule="evenodd" d="M13.7017 15.3241C12.2673 16.4174 10.4761 17.0667 8.53333 17.0667C3.8205 17.0667 0 13.2462 0 8.53333C0 3.8205 3.8205 0 8.53333 0C13.2462 0 17.0667 3.8205 17.0667 8.53333C17.0667 10.7427 16.227 12.7559 14.8494 14.2714C14.8778 14.2907 14.9052 14.312 14.9315 14.3354L19.7315 18.6021C20.0617 18.8956 20.0915 19.4013 19.7979 19.7315C19.5044 20.0617 18.9987 20.0915 18.6685 19.7979L13.8685 15.5313C13.7998 15.4702 13.7441 15.4 13.7017 15.3241ZM15.4667 8.53333C15.4667 12.3625 12.3625 15.4667 8.53333 15.4667C4.70416 15.4667 1.6 12.3625 1.6 8.53333C1.6 4.70416 4.70416 1.6 8.53333 1.6C12.3625 1.6 15.4667 4.70416 15.4667 8.53333Z" fill="white"/>
</svg>
