<svg width="14" height="8" viewBox="0 0 14 8" fill="none" xmlns="http://www.w3.org/2000/svg">
<path d="M13.541 0.827148C13.5437 0.73095 13.5274 0.63485 13.4932 0.544922C13.4589 0.455005 13.4069 0.372703 13.3408 0.302734C13.2747 0.232724 13.1953 0.176082 13.1074 0.136719C13.0195 0.0973704 12.9244 0.0759654 12.8281 0.0732422C12.732 0.0705723 12.6358 0.0868086 12.5459 0.121094C12.4561 0.155425 12.3736 0.207404 12.3037 0.273438L6.80859 5.46484L1.31055 0.272461L1.31055 0.273438C1.2409 0.205897 1.15866 0.152673 1.06836 0.117188C0.977948 0.0816672 0.881295 0.0642964 0.784179 0.0664068C0.687143 0.0685202 0.591649 0.0905263 0.502929 0.129883C0.414163 0.169302 0.333291 0.22529 0.266601 0.295899C0.199931 0.366503 0.148538 0.450162 0.114258 0.541016C0.0799768 0.631918 0.0639333 0.729083 0.0673825 0.826172C0.0708697 0.923062 0.0932575 1.01837 0.133789 1.10645C0.174403 1.19462 0.232241 1.27415 0.303711 1.33984L0.304687 1.33984L6.30371 7.00586C6.43983 7.13455 6.6203 7.20601 6.80762 7.20605C6.99498 7.20605 7.17537 7.13457 7.31152 7.00586L13.3115 1.33887C13.3815 1.27274 13.4382 1.19332 13.4775 1.10547C13.5167 1.01777 13.5383 0.923172 13.541 0.827148Z" fill="#ADADAD" stroke="#ADADAD" stroke-width="0.133333"/>
</svg>
