<svg width="27" height="27" viewBox="0 0 27 27" fill="none" xmlns="http://www.w3.org/2000/svg">
<path d="M19.8001 17.688C18.9641 17.688 18.2161 18.018 17.6441 18.535L9.80105 13.97C9.85605 13.717 9.90005 13.464 9.90005 13.2C9.90005 12.936 9.85605 12.683 9.80105 12.43L17.5561 7.90895C18.1501 8.45895 18.9311 8.79995 19.8001 8.79995C21.6261 8.79995 23.1001 7.32595 23.1001 5.49995C23.1001 3.67395 21.6261 2.19995 19.8001 2.19995C17.9741 2.19995 16.5001 3.67395 16.5001 5.49995C16.5001 5.76395 16.5441 6.01695 16.5991 6.26995L8.84405 10.791C8.25005 10.241 7.46905 9.89995 6.60005 9.89995C4.77405 9.89995 3.30005 11.374 3.30005 13.2C3.30005 15.026 4.77405 16.5 6.60005 16.5C7.46905 16.5 8.25005 16.159 8.84405 15.609L16.6761 20.185C16.6211 20.416 16.5881 20.658 16.5881 20.9C16.5881 22.671 18.0291 24.112 19.8001 24.112C21.5711 24.112 23.0121 22.671 23.0121 20.9C23.0121 19.129 21.5711 17.688 19.8001 17.688Z" fill="#D6D6D6"/>
</svg>
