<svg width="24" height="24" viewBox="0 0 24 24" fill="none" xmlns="http://www.w3.org/2000/svg">
<path d="M11.9995 18.4515L7.15211 21.3716C6.93797 21.5078 6.71409 21.5662 6.48048 21.5468C6.24687 21.5273 6.04246 21.4494 5.86726 21.3132C5.69205 21.1769 5.55578 21.0068 5.45844 20.8027C5.3611 20.5987 5.34164 20.3698 5.40004 20.1159L6.68489 14.5969L2.39232 10.8884C2.19764 10.7131 2.07617 10.5134 2.02789 10.2891C1.97961 10.0649 1.99401 9.84607 2.07111 9.63271C2.1482 9.41934 2.265 9.24413 2.42152 9.10708C2.57804 8.97003 2.79218 8.88243 3.06395 8.84427L8.72897 8.34785L10.9191 3.15005C11.0164 2.91644 11.1675 2.74123 11.3723 2.62443C11.5771 2.50762 11.7861 2.44922 11.9995 2.44922C12.2129 2.44922 12.4219 2.50762 12.6267 2.62443C12.8315 2.74123 12.9826 2.91644 13.0799 3.15005L15.27 8.34785L20.9351 8.84427C21.2076 8.88321 21.4217 8.97081 21.5775 9.10708C21.7332 9.24336 21.85 9.41856 21.9279 9.63271C22.0058 9.84685 22.0206 10.0661 21.9723 10.2903C21.924 10.5146 21.8021 10.7139 21.6067 10.8884L17.3141 14.5969L18.599 20.1159C18.6574 20.369 18.6379 20.5979 18.5406 20.8027C18.4432 21.0075 18.307 21.1777 18.1317 21.3132C17.9565 21.4487 17.7521 21.5265 17.5185 21.5468C17.2849 21.567 17.061 21.5086 16.8469 21.3716L11.9995 18.4515Z" fill="#FFC400"/>
</svg>
