<svg width="40" height="40" viewBox="0 0 40 40" fill="none" xmlns="http://www.w3.org/2000/svg">
<rect width="40" height="40" rx="10" fill="#F7F7F7"/>
<path d="M19.9994 27.7417L14.1825 31.2459C13.9256 31.4094 13.6569 31.4795 13.3766 31.4561C13.0962 31.4328 12.851 31.3393 12.6407 31.1758C12.4305 31.0123 12.2669 30.8081 12.1501 30.5633C12.0333 30.3185 12.01 30.0437 12.08 29.7391L13.6219 23.1163L8.47078 18.666C8.23717 18.4558 8.0914 18.2161 8.03347 17.947C7.97553 17.6779 7.99282 17.4153 8.08533 17.1592C8.17784 16.9032 8.318 16.693 8.50582 16.5285C8.69365 16.364 8.95062 16.2589 9.27673 16.2131L16.0748 15.6174L18.7029 9.38006C18.8197 9.09972 19.001 8.88948 19.2467 8.74931C19.4925 8.60915 19.7434 8.53906 19.9994 8.53906C20.2554 8.53906 20.5063 8.60915 20.7521 8.74931C20.9978 8.88948 21.1791 9.09972 21.2959 9.38006L23.924 15.6174L30.7221 16.2131C31.0491 16.2598 31.3061 16.365 31.493 16.5285C31.6799 16.692 31.82 16.9023 31.9135 17.1592C32.0069 17.4162 32.0247 17.6793 31.9667 17.9484C31.9088 18.2175 31.7626 18.4567 31.528 18.666L26.3769 23.1163L27.9188 29.7391C27.9888 30.0428 27.9655 30.3175 27.8487 30.5633C27.7319 30.809 27.5683 31.0132 27.3581 31.1758C27.1478 31.3384 26.9026 31.4318 26.6222 31.4561C26.3419 31.4804 26.0732 31.4103 25.8163 31.2459L19.9994 27.7417Z" fill="#FFC300"/>
</svg>
