<svg width="40" height="40" viewBox="0 0 40 40" fill="none" xmlns="http://www.w3.org/2000/svg">
<rect width="40" height="40" rx="10" fill="#EDE2F9"/>
<path d="M19.9538 11C24.9648 11 29.0447 15.079 29.0448 20.09V25.554C29.0446 27.453 27.4975 29 25.5982 29H25.4807C23.5814 29 22.0351 27.453 22.0349 25.554V23.853C22.0351 21.954 23.5814 20.407 25.4807 20.407H25.5982C26.383 20.407 27.1078 20.672 27.6881 21.116V20.09C27.688 15.83 24.2231 12.357 19.9538 12.357C17.8646 12.357 15.9287 13.162 14.4906 14.627C13.0435 16.101 12.2753 18.064 12.3115 20.163V21.115C12.8915 20.671 13.616 20.407 14.4005 20.407H14.518C16.4173 20.407 17.9644 21.954 17.9646 23.853V25.554C17.9644 27.453 16.4173 29 14.518 29H14.4005C12.5013 29 10.9549 27.453 10.9547 25.554V20.181C10.9095 17.73 11.8229 15.414 13.5234 13.677C15.2237 11.95 17.5028 11 19.9538 11Z" fill="#9D72F1"/>
</svg>
