<svg width="40" height="40" viewBox="0 0 40 40" fill="none" xmlns="http://www.w3.org/2000/svg">
<rect width="40" height="40" rx="10" fill="#F9E2E2"/>
<path d="M28 13H12V27L21.292 17.706C21.3849 17.613 21.4952 17.539 21.6166 17.489C21.738 17.439 21.8681 17.413 21.9995 17.413C22.1309 17.413 22.261 17.439 22.3824 17.489C22.5038 17.539 22.6141 17.613 22.707 17.706L28 23.01V13ZM10 11.993C10.0018 11.73 10.1069 11.479 10.2925 11.293C10.4781 11.107 10.7294 11.002 10.992 11H29.008C29.556 11 30 11.445 30 11.993V28.007C29.9982 28.27 29.8931 28.521 29.7075 28.707C29.5219 28.893 29.2706 28.998 29.008 29H10.992C10.7288 29 10.4765 28.895 10.2905 28.709C10.1045 28.523 10 28.27 10 28.007V11.993ZM16 19C15.4696 19 14.9609 18.789 14.5858 18.414C14.2107 18.039 14 17.53 14 17C14 16.47 14.2107 15.961 14.5858 15.586C14.9609 15.211 15.4696 15 16 15C16.5304 15 17.0391 15.211 17.4142 15.586C17.7893 15.961 18 16.47 18 17C18 17.53 17.7893 18.039 17.4142 18.414C17.0391 18.789 16.5304 19 16 19Z" fill="#D27679"/>
</svg>
