<svg width="40" height="40" viewBox="0 0 40 40" fill="none" xmlns="http://www.w3.org/2000/svg">
<rect width="40" height="40" rx="10" fill="#D7F4F0"/>
<path d="M23.6666 9.917V12.667H17.2499C16.5206 12.667 15.8211 12.956 15.3054 13.472C14.7896 13.988 14.4999 14.687 14.4999 15.417V27.333H11.7499C11.5068 27.333 11.2736 27.237 11.1017 27.065C10.9298 26.893 10.8333 26.66 10.8333 26.417V9.917C10.8333 9.674 10.9298 9.44 11.1017 9.268C11.2736 9.097 11.5068 9 11.7499 9H22.7499C22.993 9 23.2262 9.097 23.3981 9.268C23.57 9.44 23.6666 9.674 23.6666 9.917ZM29.1666 15.417V30.083C29.1666 30.326 29.07 30.56 28.8981 30.732C28.7262 30.903 28.493 31 28.2499 31H17.2499C17.0068 31 16.7736 30.903 16.6017 30.732C16.4298 30.56 16.3333 30.326 16.3333 30.083V15.417C16.3333 15.174 16.4298 14.94 16.6017 14.768C16.7736 14.597 17.0068 14.5 17.2499 14.5H28.2499C28.493 14.5 28.7262 14.597 28.8981 14.768C29.07 14.94 29.1666 15.174 29.1666 15.417ZM19.0833 18.167C18.8401 18.167 18.607 18.263 18.4351 18.435C18.2632 18.607 18.1666 18.84 18.1666 19.083C18.1666 19.326 18.2632 19.56 18.4351 19.732C18.607 19.903 18.8401 20 19.0833 20H26.4166C26.6597 20 26.8929 19.903 27.0648 19.732C27.2367 19.56 27.3333 19.326 27.3333 19.083C27.3333 18.84 27.2367 18.607 27.0648 18.435C26.8929 18.263 26.6597 18.167 26.4166 18.167H19.0833ZM19.0833 21.833C18.8401 21.833 18.607 21.93 18.4351 22.102C18.2632 22.274 18.1666 22.507 18.1666 22.75C18.1666 22.993 18.2632 23.226 18.4351 23.398C18.607 23.57 18.8401 23.667 19.0833 23.667H24.5833C24.8264 23.667 25.0595 23.57 25.2314 23.398C25.4033 23.226 25.4999 22.993 25.4999 22.75C25.4999 22.507 25.4033 22.274 25.2314 22.102C25.0595 21.93 24.8264 21.833 24.5833 21.833H19.0833Z" fill="#5ED3C4"/>
</svg>
