<svg width="40" height="40" viewBox="0 0 40 40" fill="none" xmlns="http://www.w3.org/2000/svg">
<rect width="40" height="40" rx="10" fill="#FEDFF3"/>
<g clip-path="url(#clip_interactive)">
<path d="M11.1906 21.915C10.5562 21.281 10.5562 20.251 11.1906 19.617C11.8249 18.983 12.8543 18.983 13.4887 19.617L16.1698 22.298L22.298 16.17L19.6169 13.489C18.9825 12.854 18.9825 11.825 19.6169 11.191C20.2513 10.556 21.2806 10.556 21.915 11.191L22.298 11.574L22.681 11.191C23.3154 10.556 24.3448 10.556 24.9791 11.191L26.1282 12.34C26.5519 11.916 27.2365 11.916 27.6602 12.34C28.084 12.763 28.084 13.448 27.6602 13.872L28.8093 15.021C29.4437 15.655 29.4437 16.685 28.8093 17.319L28.4263 17.702L28.8093 18.085C29.4437 18.719 29.4437 19.749 28.8093 20.383C28.1749 21.017 27.1456 21.017 26.5112 20.383L23.8301 17.702L17.7018 23.83L20.3829 26.511C21.0173 27.146 21.0173 28.175 20.3829 28.809C19.7486 29.444 18.7192 29.444 18.0848 28.809L17.7018 28.426L17.3188 28.809C16.6844 29.444 15.6551 29.444 15.0207 28.809L13.8717 27.66C13.448 28.084 12.7633 28.084 12.3396 27.66C11.9159 27.237 11.9159 26.552 12.3396 26.128L11.1906 24.979C10.5562 24.345 10.5562 23.316 11.1906 22.681L11.5736 22.298L11.1906 21.915Z" fill="#FC95D8"/>
</g>
<defs>
<clipPath id="clip_interactive">
<rect width="24" height="24" fill="white" transform="translate(8 8)"/>
</clipPath>
</defs>
</svg>
