<svg width="40" height="40" viewBox="0 0 40 40" fill="none" xmlns="http://www.w3.org/2000/svg">
<rect width="40" height="40" rx="10" fill="#F9E2E2"/>
<path d="M22.5117 21.114L20.8377 8.857H20.7126C17.7901 8.862 14.9885 10.024 12.9201 12.088C10.8517 14.153 9.6847 16.952 9.6743 19.875V20L22.5117 21.114Z" fill="#E0A3A5"/>
<path d="M20.9625 8.857H20.8374V20L26.4182 22.229L31.9999 20V19.875C31.9895 16.953 30.8227 14.153 28.7545 12.089C26.6862 10.024 23.8848 8.862 20.9625 8.857Z" fill="#E8B9BA"/>
<path d="M32.0002 20V20.123C31.9894 23.045 30.8221 25.845 28.7535 27.91C26.6849 29.975 23.8831 31.137 20.9603 31.143H20.7143C17.7916 31.137 14.99 29.974 12.9215 27.909C10.853 25.845 9.6856 23.045 9.6743 20.123V20H32.0002Z" fill="#D27679"/>
<path d="M9.0234 13.871H19.2559C19.527 13.871 19.7871 13.979 19.979 14.17C20.1709 14.361 20.2789 14.621 20.2794 14.892V25.108C20.2789 25.379 20.1709 25.638 19.979 25.83C19.7871 26.021 19.527 26.129 19.2559 26.128H9.0234C8.8891 26.129 8.756 26.103 8.6318 26.052C8.5076 26.001 8.3947 25.926 8.2997 25.831C8.2046 25.736 8.1291 25.623 8.0777 25.499C8.0263 25.375 7.9999 25.242 8 25.108V14.892C7.9999 14.758 8.0263 14.625 8.0777 14.501C8.1291 14.377 8.2046 14.264 8.2997 14.169C8.3947 14.074 8.5076 13.999 8.6318 13.948C8.756 13.897 8.8891 13.871 9.0234 13.871Z" fill="#C34A4E"/>
<path d="M14.251 16.595C14.917 16.552 15.5771 16.745 16.1144 17.141C16.3352 17.337 16.5083 17.581 16.6206 17.855C16.7329 18.128 16.7814 18.424 16.7624 18.719C16.7697 19.134 16.6588 19.543 16.4427 19.898C16.2235 20.247 15.9083 20.525 15.535 20.699C15.1082 20.898 14.6418 20.996 14.1713 20.986H12.8745V23.386H11.5493V16.595H14.251ZM12.8736 19.949H14.0144C14.3761 19.974 14.7348 19.867 15.0233 19.648C15.1412 19.535 15.233 19.398 15.2923 19.247C15.3515 19.095 15.3767 18.932 15.3662 18.769C15.3662 18.021 14.9304 17.647 14.059 17.646H12.8736V19.949Z" fill="white"/>
</svg>
