<svg width="40" height="40" viewBox="0 0 40 40" fill="none" xmlns="http://www.w3.org/2000/svg">
<rect width="40" height="40" rx="10" fill="#E6F2FF"/>
<path d="M30.233 15.313C30.0254 15.289 29.8154 15.326 29.6287 15.42L24.7505 17.857V22.143L29.6287 24.58C29.7918 24.662 29.9731 24.7 30.1553 24.692C30.3375 24.684 30.5146 24.63 30.6699 24.534C30.8251 24.438 30.9534 24.305 31.0425 24.145C31.1316 23.986 31.1786 23.807 31.1791 23.625V16.375C31.1788 16.113 31.0823 15.86 30.9079 15.664C30.7336 15.468 30.4934 15.343 30.233 15.313Z" fill="#60A4F1"/>
<path d="M14.0361 12.5C12.2736 12.5 10.8218 13.952 10.8218 15.714V24.286C10.8218 26.048 12.2736 27.5 14.0361 27.5H22.6075C24.37 27.5 25.8218 26.048 25.8218 24.286V15.714C25.8218 13.952 24.37 12.5 22.6075 12.5H14.0361Z" fill="#60A4F1"/>
</svg>
