<svg width="40" height="40" viewBox="0 0 40 40" fill="none" xmlns="http://www.w3.org/2000/svg">
<rect width="40" height="40" rx="10" fill="#E5F8DD"/>
<path d="M25.4785 11.196C25.9154 11.196 26.3484 11.282 26.752 11.449C27.1555 11.616 27.5223 11.862 27.8311 12.171C28.1401 12.48 28.3854 12.846 28.5527 13.25C28.72 13.654 28.8057 14.087 28.8057 14.523C28.8056 14.96 28.72 15.393 28.5527 15.797C28.3854 16.2 28.1401 16.567 27.8311 16.876L17.9912 26.716C17.5174 27.19 16.9245 27.527 16.2754 27.693L12.0449 28.78C11.9313 28.81 11.8115 28.809 11.6982 28.778C11.5849 28.748 11.4816 28.687 11.3984 28.604C11.3154 28.522 11.2557 28.419 11.2246 28.306C11.1935 28.192 11.1916 28.073 11.2207 27.959L12.3086 23.727C12.4755 23.078 12.8137 22.485 13.2871 22.011L23.127 12.171C23.4357 11.862 23.8025 11.616 24.2061 11.449C24.6094 11.282 25.0419 11.196 25.4785 11.196ZM25.4785 12.547C24.9544 12.547 24.4517 12.755 24.0811 13.126L23.1426 14.063L25.9385 16.859L26.877 15.921C27.2475 15.55 27.456 15.048 27.4561 14.523C27.4561 13.999 27.2474 13.497 26.877 13.126C26.5062 12.755 26.0028 12.547 25.4785 12.547Z" fill="#79C276" stroke="#79C276" stroke-width="0.1"/>
</svg>
