<svg width="40" height="40" viewBox="0 0 40 40" fill="none" xmlns="http://www.w3.org/2000/svg">
<rect width="40" height="40" rx="10" fill="#F7F7F7"/>
<path d="M12.8 30.8C12.46 30.8 12.1752 30.68 11.9456 30.45C11.716 30.22 11.6008 29.94 11.6 29.6C11.5992 29.26 11.7144 28.98 11.9456 28.75C12.1768 28.52 12.4616 28.4 12.8 28.4H27.2C27.54 28.4 27.8252 28.52 28.0556 28.75C28.286 28.98 28.4008 29.26 28.4 29.6C28.3992 29.94 28.284 30.22 28.0544 30.46C27.8248 30.69 27.54 30.8 27.2 30.8H12.8ZM13.64 26.6C13.06 26.6 12.5452 26.41 12.0956 26.03C11.646 25.65 11.3708 25.17 11.27 24.59L10.07 16.97C10.03 16.97 9.9852 16.975 9.9356 16.986C9.886 16.996 9.8408 17.001 9.8 17C9.3 17 8.8752 16.825 8.5256 16.476C8.176 16.126 8.0008 15.701 8 15.2C7.9992 14.699 8.1744 14.274 8.5256 13.926C8.8768 13.577 9.3016 13.402 9.8 13.4C10.2984 13.398 10.7236 13.574 11.0756 13.926C11.4276 14.278 11.6024 14.702 11.6 15.2C11.6 15.34 11.5848 15.47 11.5544 15.59C11.524 15.71 11.4892 15.82 11.45 15.92L15.2 17.6L18.95 12.47C18.73 12.31 18.55 12.1 18.41 11.84C18.27 11.58 18.2 11.3 18.2 11C18.2 10.5 18.3752 10.075 18.7256 9.724C19.076 9.374 19.5008 9.199 20 9.2C20.4992 9.201 20.9244 9.376 21.2756 9.726C21.6268 10.075 21.8016 10.5 21.8 11C21.8 11.3 21.73 11.58 21.59 11.84C21.45 12.1 21.27 12.31 21.05 12.47L24.8 17.6L28.55 15.92C28.51 15.82 28.4748 15.71 28.4444 15.59C28.414 15.47 28.3992 15.34 28.4 15.2C28.4 14.7 28.5752 14.275 28.9256 13.924C29.276 13.574 29.7008 13.399 30.2 13.4C30.6992 13.401 31.1244 13.576 31.4756 13.926C31.8268 14.275 32.0016 14.7 32 15.2C31.9984 15.7 31.8236 16.125 31.4756 16.476C31.1276 16.826 30.7024 17.001 30.2 17C30.16 17 30.1152 16.995 30.0656 16.986C30.016 16.976 29.9708 16.971 29.93 16.97L28.73 24.59C28.63 25.17 28.3552 25.65 27.9056 26.03C27.456 26.41 26.9408 26.6 26.36 26.6H13.64Z" fill="#FFC300"/>
</svg>
