<svg width="40" height="40" viewBox="0 0 40 40" fill="none" xmlns="http://www.w3.org/2000/svg">
<rect width="40" height="40" rx="10" fill="#F9E2E2"/>
<path fill-rule="evenodd" clip-rule="evenodd" d="M20.6441 8.404C20.4642 8.443 20.1381 8.561 19.9192 8.667C19.4345 8.9 18.8649 9.446 18.6176 9.915C18.4945 10.148 16.1528 16.536 16.1528 16.639C16.1528 16.649 17.0025 16.666 18.041 16.677C19.8184 16.695 19.952 16.703 20.3184 16.814C21.7107 17.234 22.7729 18.297 23.1906 19.688C23.299 20.049 23.3097 20.211 23.3372 21.899L23.3669 23.72L24.2839 24.022C25.3936 24.387 25.8323 24.463 26.3591 24.381C26.8081 24.312 27.2187 24.174 27.5512 23.981C27.8986 23.779 28.4432 23.206 28.6392 22.835C28.858 22.422 31.5441 14.956 31.6181 14.555C31.7356 13.919 31.6397 13.287 31.3292 12.651C31.0942 12.169 30.496 11.553 30.0493 11.333C29.6188 11.12 22.2815 8.485 21.8824 8.399C21.4647 8.31 21.0713 8.311 20.6441 8.404ZM21.596 11.776C21.0342 11.972 20.7271 12.595 20.9141 13.158C21.0611 13.601 21.4737 13.902 21.9336 13.902C22.5898 13.902 23.0444 13.45 23.0453 12.796C23.0463 12.066 22.2894 11.533 21.596 11.776ZM23.2628 15.332C22.9539 15.446 22.6414 15.802 22.563 16.128C22.424 16.708 22.7937 17.302 23.3809 17.443C24.1105 17.618 24.8403 16.955 24.7234 16.223C24.6149 15.544 23.8893 15.101 23.2628 15.332ZM10.6484 17.862C9.5188 18.158 8.6569 19.057 8.4173 20.189C8.3061 20.714 8.3049 28.713 8.4159 29.237C8.6722 30.447 9.6823 31.412 10.9141 31.624C11.1218 31.66 12.698 31.674 15.5017 31.663L19.7729 31.648L20.1535 31.509C21.1725 31.136 21.8846 30.365 22.143 29.354C22.2428 28.964 22.2471 28.775 22.2471 24.716C22.2471 20.673 22.2425 20.467 22.1442 20.083C21.9981 19.511 21.7593 19.094 21.3358 18.67C20.9123 18.246 20.4953 18.007 19.9242 17.861C19.5392 17.763 19.3389 17.758 15.272 17.761C11.2844 17.764 10.9991 17.77 10.6484 17.862ZM25.0858 18.85C24.5502 18.98 24.2264 19.383 24.2264 19.92C24.2264 20.294 24.3153 20.5 24.5793 20.739C24.9345 21.059 25.3341 21.12 25.763 20.918C26.0744 20.772 26.1658 20.676 26.3142 20.341C26.4951 19.932 26.4024 19.483 26.0673 19.144C25.8257 18.9 25.4018 18.773 25.0858 18.85ZM12.0635 20.931C11.5221 21.177 11.268 21.838 11.51 22.371C11.8844 23.196 13.0599 23.242 13.4833 22.449C13.6571 22.123 13.635 21.621 13.4334 21.316C13.1571 20.898 12.5254 20.721 12.0635 20.931ZM17.6633 20.916C17.4247 21.02 17.2102 21.227 17.0801 21.481C16.9236 21.785 16.9642 22.268 17.1709 22.561C17.6688 23.268 18.7565 23.14 19.093 22.333C19.4563 21.463 18.5269 20.542 17.6633 20.916ZM14.9885 23.646C14.7705 23.716 14.5178 23.903 14.3934 24.086C14.0813 24.546 14.1477 25.134 14.5543 25.509C15.0197 25.939 15.6636 25.914 16.0902 25.451C16.4487 25.062 16.4972 24.593 16.2269 24.131C16.0008 23.745 15.4068 23.513 14.9885 23.646ZM12.0639 26.483C11.8494 26.578 11.6249 26.812 11.5107 27.062C11.184 27.774 11.7527 28.603 12.5648 28.598C12.9287 28.596 13.4159 28.244 13.5519 27.886C13.6864 27.532 13.5517 26.935 13.2811 26.686C12.998 26.426 12.4146 26.328 12.0639 26.483ZM17.5592 26.527C17.2112 26.713 17.0219 27.013 16.9961 27.419C16.9714 27.807 17.0806 28.071 17.3724 28.327C18.0636 28.935 19.1683 28.428 19.1727 27.502C19.1744 27.169 18.9585 26.754 18.6914 26.577C18.3868 26.376 17.8846 26.353 17.5592 26.527Z" fill="#D27679"/>
</svg>
