<svg width="40" height="40" viewBox="0 0 40 40" fill="none" xmlns="http://www.w3.org/2000/svg">
<rect width="40" height="40" rx="10" fill="#E6F2FF"/>
<path d="M29.3078 9.846V26.769C29.3078 26.994 29.2186 27.209 29.0599 27.368C28.9013 27.526 28.686 27.615 28.4616 27.615H14.077C13.6282 27.615 13.1977 27.794 12.8804 28.111C12.563 28.428 12.3847 28.859 12.3847 29.308H26.7693C26.9937 29.308 27.2089 29.397 27.3676 29.556C27.5263 29.714 27.6155 29.929 27.6155 30.154C27.6155 30.378 27.5263 30.593 27.3676 30.752C27.2089 30.911 26.9937 31 26.7693 31H11.5385C11.3141 31 11.0989 30.911 10.9402 30.752C10.7815 30.593 10.6924 30.378 10.6924 30.154V12.385C10.6924 11.487 11.049 10.626 11.6837 9.991C12.3185 9.357 13.1793 9 14.077 9H28.4616C28.686 9 28.9013 9.089 29.0599 9.248C29.2186 9.407 29.3078 9.622 29.3078 9.846Z" fill="#60A4F1"/>
</svg>
