<svg width="40" height="40" viewBox="0 0 40 40" fill="none" xmlns="http://www.w3.org/2000/svg">
<rect width="40" height="40" rx="10" fill="#FDF1D4"/>
<path fill-rule="evenodd" clip-rule="evenodd" d="M9.851 9.038C9.488 9.148 9.1613 9.483 9.0542 9.857C9.0252 9.958 9.0014 10.719 9.0014 11.548V13.055H20.0265H31.0516L31.035 11.44C31.017 9.68 31.016 9.674 30.6853 9.343C30.3227 8.981 31.261 9.011 20.105 9.001C14.5505 8.996 9.9362 9.013 9.851 9.038ZM9.0143 22.19C9.0274 29.515 9.0361 30.199 9.1185 30.35C9.2335 30.559 9.4694 30.795 9.679 30.91C9.83 30.993 10.6473 31 20.0235 31C29.3997 31 30.217 30.993 30.3681 30.91C30.5776 30.795 30.8136 30.559 30.9285 30.35C31.0109 30.199 31.0197 29.515 31.0328 22.19L31.047 14.195H20.0235H9L9.0143 22.19ZM12.2802 16.583C12.2172 16.609 12.1133 16.696 12.0495 16.777C11.9352 16.922 11.9334 16.959 11.9334 19.143V21.361L12.0918 21.538L12.2502 21.715L15.0237 21.73C18.0741 21.747 18.0317 21.751 18.2037 21.419C18.3265 21.181 18.3265 17.092 18.2037 16.854C18.0343 16.526 18.0661 16.53 15.0989 16.534C13.6117 16.535 12.3433 16.558 12.2802 16.583ZM20.3364 16.614C19.9874 16.805 19.9415 17.274 20.2467 17.531L20.4119 17.67H24.0431C26.7426 17.67 27.7107 17.654 27.8165 17.605C28.1354 17.46 28.2062 17.016 27.9552 16.735L27.7968 16.557L24.1409 16.545C20.9816 16.535 20.4648 16.544 20.3364 16.614ZM20.2467 20.741C20.0386 20.916 19.9815 21.178 20.1011 21.409C20.2813 21.758 20.1362 21.746 24.154 21.73L27.7968 21.715L27.9552 21.538C28.2062 21.257 28.1354 20.812 27.8165 20.667C27.7107 20.619 26.7426 20.602 24.0431 20.602H20.4119L20.2467 20.741ZM12.2109 24.153C11.902 24.324 11.8449 24.737 12.0918 25.013L12.2503 25.19H20.0235H27.7968L27.9552 25.013C28.2035 24.735 28.1444 24.315 27.8343 24.155C27.6188 24.043 12.4117 24.042 12.2109 24.153ZM12.2109 27.628C11.902 27.799 11.8449 28.212 12.0918 28.488L12.2502 28.665L16.0962 28.681C18.2114 28.69 20.0241 28.682 20.1245 28.664C20.5631 28.585 20.7277 28.031 20.4078 27.711L20.2491 27.552L16.2948 27.554C13.1169 27.556 12.3152 27.57 12.2109 27.628Z" fill="#FFCD93"/>
</svg>
