<svg width="24" height="24" viewBox="0 0 24 24" fill="none" xmlns="http://www.w3.org/2000/svg">
<path d="M12.1906 17.5697L8.9816 14.8462C8.84562 14.7306 8.67301 14.6671 8.49456 14.667H6.54264C6.14335 14.667 5.76041 14.5084 5.47807 14.2261C5.19573 13.9437 5.03711 13.5608 5.03711 13.1615V10.8385C5.03711 10.4392 5.19573 10.0563 5.47807 9.77391C5.76041 9.49157 6.14335 9.33296 6.54264 9.33296H8.49531C8.67376 9.33285 8.84637 9.26936 8.98235 9.1538L12.1906 6.42879C12.3001 6.33587 12.4339 6.27622 12.5762 6.25687C12.7185 6.23751 12.8634 6.25927 12.9938 6.31958C13.1241 6.37988 13.2345 6.47621 13.3118 6.5972C13.3892 6.71819 13.4304 6.85878 13.4304 7.0024V16.9976C13.4304 17.1412 13.3892 17.2818 13.3118 17.4028C13.2345 17.5238 13.1241 17.6201 12.9938 17.6804C12.8634 17.7407 12.7185 17.7625 12.5762 17.7431C12.4339 17.7238 12.3001 17.6641 12.1906 17.5712V17.5697Z" stroke="#1B1B1C" stroke-linejoin="round"/>
<path d="M15.5107 9.39611C15.8721 9.65958 16.1732 10.039 16.3824 10.4967C16.591 10.9536 16.7016 11.4715 16.7016 11.9992C16.7016 12.5261 16.591 13.0455 16.3824 13.5017C16.1732 13.9586 15.8728 14.3388 15.5107 14.6022M17.0434 7.80176C17.6268 8.22707 18.1123 8.83907 18.4488 9.57602C18.7853 10.3122 18.9629 11.1485 18.9629 11.9992C18.9629 12.8498 18.7853 13.6854 18.4488 14.4231C18.1115 15.1593 17.6268 15.7713 17.0434 16.1966" stroke="#1B1B1C" stroke-linecap="round" stroke-linejoin="round"/>
</svg>
