<svg width="50" height="50" viewBox="0 0 50 50" fill="none" xmlns="http://www.w3.org/2000/svg">
<rect width="50" height="50" rx="8.33333" fill="#B41E23"/>
<path fill-rule="evenodd" clip-rule="evenodd" d="M24.8296 12.0241C23.5109 12.1025 22.3836 12.4762 21.341 13.1806C20.0994 14.0196 19.1476 15.2969 18.7018 16.7224C18.1283 18.556 18.3593 20.5446 19.3364 22.1851C20.3445 23.8778 22.0433 25.0463 23.9733 25.3747C24.4054 25.4483 24.6252 25.4657 25.1211 25.4658C25.7398 25.4659 26.1671 25.4168 26.7151 25.2826C28.9755 24.7292 30.7907 23.0458 31.5142 20.8319C31.7397 20.142 31.8404 19.4935 31.8397 18.7354C31.8393 18.2732 31.8098 17.9372 31.7333 17.5223C31.1952 14.6062 28.7965 12.3795 25.8498 12.0608C25.5896 12.0327 25.0267 12.0124 24.8296 12.0241ZM24.7932 15.9778C24.445 16.03 24.1857 16.1086 23.9005 16.2481C23.4466 16.4701 23.084 16.7847 22.8081 17.196C22.1874 18.1214 22.1786 19.3417 22.786 20.262C23.013 20.6059 23.2597 20.8526 23.6036 21.0796C24.4084 21.6108 25.4765 21.6766 26.3375 21.2481C27.1244 20.8565 27.6559 20.1728 27.8483 19.305C27.9029 19.0586 27.9074 18.4595 27.8564 18.2253C27.7276 17.6336 27.4922 17.1966 27.0806 16.7848C26.6779 16.3818 26.2793 16.1609 25.7132 16.0268C25.5535 15.989 25.4662 15.9805 25.1849 15.9755C24.9995 15.9722 24.8232 15.9732 24.7932 15.9778ZM18.9181 25.7205C18.5466 25.7983 18.2454 25.9619 17.9797 26.2301C17.6909 26.5218 17.5309 26.8408 17.4673 27.2519C17.3728 27.8636 17.636 28.5429 18.1151 28.9237C18.4236 29.1689 18.9746 29.507 19.5026 29.7751C20.3617 30.2113 21.407 30.5809 22.3612 30.786C22.4864 30.8129 22.6066 30.8404 22.6282 30.8469C22.6623 30.8574 22.4179 31.1194 20.7734 32.8355C19.7317 33.9226 18.8239 34.876 18.7561 34.9541C18.553 35.1883 18.4172 35.4495 18.342 35.7503C18.2901 35.9581 18.2948 36.3969 18.3512 36.6065C18.5299 37.2703 19.0164 37.7569 19.6741 37.9297C19.8248 37.9692 19.8989 37.9778 20.1023 37.9792C20.5039 37.9821 20.8206 37.8884 21.1572 37.6671C21.3089 37.5673 21.4581 37.4128 23.2976 35.4497C24.227 34.4577 24.998 33.6387 25.0109 33.6295C25.0279 33.6175 25.5877 34.152 27.0427 35.5697C28.1473 36.6459 29.1095 37.5707 29.181 37.6249C29.3526 37.7547 29.5965 37.8707 29.8211 37.9293C29.9705 37.9682 30.0477 37.9772 30.2492 37.9789C30.3903 37.9802 30.5418 37.971 30.6045 37.9575C30.9914 37.8742 31.3014 37.7079 31.5654 37.4421C31.7882 37.2177 31.9287 36.9778 32.0282 36.652C32.0749 36.4991 32.0783 36.4659 32.0783 36.1601C32.0783 35.8541 32.0749 35.8213 32.0281 35.6683C31.9591 35.4427 31.8543 35.2326 31.7265 35.0638C31.6601 34.976 30.8287 34.1394 29.5587 32.8825C28.4256 31.7611 27.5016 30.8406 27.5052 30.837C27.5089 30.8333 27.6339 30.8019 27.783 30.7672C29.2029 30.4369 30.5113 29.8813 31.5962 29.148C32.102 28.8062 32.3563 28.4878 32.5027 28.0131C32.5488 27.8636 32.552 27.8309 32.552 27.5161C32.552 27.2007 32.5488 27.1685 32.5021 27.0151C32.3126 26.393 31.8642 25.9446 31.2421 25.7551C31.0887 25.7084 31.0565 25.7052 30.7411 25.7052C30.4256 25.7052 30.3938 25.7083 30.2428 25.7549C30.0251 25.822 29.8207 25.9267 29.605 26.0818C28.6629 26.7587 27.3146 27.2315 25.8953 27.3825C25.5272 27.4216 24.6015 27.4271 24.2558 27.3922C23.1165 27.277 22.1522 27.0118 21.2408 26.5629C20.8774 26.384 20.6294 26.2393 20.3922 26.0679C20.1908 25.9224 19.9447 25.8003 19.7444 25.7465C19.5609 25.6972 19.0987 25.6827 18.9181 25.7205Z" fill="white"/>
</svg>
