<svg width="40" height="40" viewBox="0 0 40 40" fill="none" xmlns="http://www.w3.org/2000/svg">
<g clip-path="url(#clip0_3443_15615)">
<rect width="40" height="40" rx="10" fill="#C34A4E"/>
<path fill-rule="evenodd" clip-rule="evenodd" d="M10.5807 12.4075C10.5645 12.4499 10.5584 15.8941 10.5671 20.0613L10.5829 27.638H12.4847H14.3865L14.4026 25.1429L14.4186 22.6477L18.0729 22.6528C21.7049 22.6578 21.7276 22.6586 21.8203 22.786C21.8716 22.8564 22.6186 23.9632 23.4802 25.2454C24.3419 26.5276 25.0778 27.5968 25.1155 27.6216C25.2209 27.6905 29.3252 27.6763 29.3252 27.607C29.3252 27.5746 28.5453 26.4968 27.5921 25.2118C26.6388 23.9268 25.8228 22.8246 25.7786 22.7625C25.705 22.659 25.7234 22.6444 26.0014 22.5847C26.1681 22.549 26.4935 22.4486 26.7243 22.3617C27.8191 21.9497 28.4099 21.2719 28.7153 20.078C28.9857 19.0204 29.0167 16.4628 28.7734 15.2769C28.4312 13.6092 27.2859 12.6237 25.4295 12.3995C24.5805 12.297 10.6199 12.3044 10.5807 12.4075ZM14.4172 17.484V19.2659L19.4741 19.2495C24.4946 19.2332 24.5322 19.2322 24.7041 19.1049C25.0313 18.8627 25.0614 18.7252 25.0614 17.4738C25.0614 16.1768 25.0373 16.0981 24.5666 15.8589C24.332 15.7396 24.186 15.7357 19.3712 15.7191L14.4172 15.702V17.484Z" fill="white"/>
<circle cx="29.6641" cy="11.113" r="1.39128" fill="white"/>
</g>
<defs>
<clipPath id="clip0_3443_15615">
<rect width="40" height="40" rx="10" fill="white"/>
</clipPath>
</defs>
</svg>
