<svg width="40" height="40" viewBox="0 0 40 40" fill="none" xmlns="http://www.w3.org/2000/svg">
<rect width="40" height="40" rx="10" fill="#C34A4E"/>
<path d="M31.0798 14.0367C31.242 13.4978 31.0798 13.1025 30.3125 13.1025H27.7708C27.1241 13.1025 26.8286 13.4444 26.6663 13.82C26.6663 13.82 25.374 16.9713 23.5428 19.0146C22.9517 19.6092 22.6817 19.7969 22.3594 19.7969C22.1983 19.7969 21.9642 19.6092 21.9642 19.0702V14.0367C21.9642 13.39 21.7776 13.1025 21.2387 13.1025H17.2448C16.8414 13.1025 16.5981 13.4016 16.5981 13.6867C16.5981 14.2986 17.5137 14.44 17.6075 16.1646V19.9059C17.6075 20.7253 17.4604 20.8748 17.1358 20.8748C16.2747 20.8748 14.1792 17.7119 12.9356 14.0912C12.6934 13.3877 12.4488 13.1037 11.7998 13.1037H9.25926C8.53257 13.1037 8.3877 13.4456 8.3877 13.8211C8.3877 14.4957 9.24883 17.8336 12.399 22.2482C14.4991 25.2628 17.4557 26.897 20.1492 26.897C21.7637 26.897 21.9631 26.5342 21.9631 25.9083V23.6297C21.9631 22.9042 22.1172 22.7582 22.6283 22.7582C23.0039 22.7582 23.6506 22.9482 25.1584 24.4005C26.8807 26.1228 27.1658 26.8958 28.1336 26.8958H30.6741C31.3997 26.8958 31.7624 26.533 31.5538 25.8168C31.3255 25.104 30.5026 24.0667 29.4108 22.8393C28.8174 22.1393 27.9308 21.3859 27.6607 21.0092C27.284 20.5236 27.393 20.3092 27.6607 19.8781C27.6619 19.8792 30.7576 15.5191 31.0798 14.0367Z" fill="white"/>
</svg>
