<svg width="50" height="50" viewBox="0 0 50 50" fill="none" xmlns="http://www.w3.org/2000/svg">
<rect width="50" height="50" rx="8.33333" fill="#B41E23"/>
<path d="M38.8495 17.5464C39.0523 16.8727 38.8495 16.3787 37.8904 16.3787H34.7133C33.9049 16.3787 33.5354 16.806 33.3326 17.2754C33.3326 17.2754 31.7173 21.2146 29.4282 23.7687C28.6894 24.5119 28.3518 24.7466 27.9491 24.7466C27.7477 24.7466 27.455 24.5119 27.455 23.8383V17.5464C27.455 16.738 27.2218 16.3787 26.5481 16.3787H21.5557C21.0516 16.3787 20.7473 16.7524 20.7473 17.1088C20.7473 17.8738 21.8918 18.0505 22.0092 20.2063V24.8828C22.0092 25.9071 21.8252 26.094 21.4195 26.094C20.3431 26.094 17.7238 22.1403 16.1693 17.6144C15.8665 16.7351 15.5608 16.3801 14.7495 16.3801H11.5738C10.6655 16.3801 10.4844 16.8075 10.4844 17.2769C10.4844 18.1201 11.5608 22.2925 15.4985 27.8108C18.1236 31.579 21.8194 33.6217 25.1863 33.6217C27.2044 33.6217 27.4536 33.1682 27.4536 32.3859V29.5377C27.4536 28.6307 27.6463 28.4482 28.2852 28.4482C28.7546 28.4482 29.563 28.6858 31.4478 30.5011C33.6006 32.6539 33.957 33.6202 35.1667 33.6202H38.3424C39.2493 33.6202 39.7028 33.1668 39.442 32.2715C39.1566 31.3805 38.128 30.0838 36.7633 28.5496C36.0215 27.6746 34.9132 26.7329 34.5757 26.262C34.1048 25.655 34.241 25.387 34.5757 24.8481C34.5771 24.8495 38.4467 19.3993 38.8495 17.5464Z" fill="white"/>
</svg>
