<svg width="40" height="40" viewBox="0 0 40 40" fill="none" xmlns="http://www.w3.org/2000/svg">
<g clip-path="url(#clip0_3443_15613)">
<rect width="40" height="40" rx="10" fill="white"/>
<path fill-rule="evenodd" clip-rule="evenodd" d="M12.4684 -0.453988C11.2368 -0.419456 10.5029 -0.362958 9.86322 -0.253385C9.70869 -0.226924 9.35239 -0.181205 9.07143 -0.151832C7.85086 -0.0242271 7.52516 0.0240973 7.30289 0.110632C7.17304 0.161204 6.81991 0.249321 6.51816 0.306534C6.17141 0.372278 5.88647 0.459221 5.74395 0.542742C5.61992 0.615382 5.36741 0.706462 5.18285 0.745081C4.99824 0.7837 4.80816 0.850669 4.76045 0.893834C4.71269 0.93705 4.52123 1.04151 4.33493 1.12601C4.14863 1.21045 3.98363 1.29989 3.96831 1.32472C3.95298 1.34949 3.7439 1.50192 3.50371 1.6634C2.82533 2.11947 1.89797 3.17106 1.63693 3.78022C1.60797 3.84786 1.51648 4.00361 1.43362 4.12631C1.27471 4.3618 1.18255 4.57522 0.952321 5.24088C0.791666 5.70548 0.758513 5.82921 0.473113 7.02879C0.315778 7.69005 0.259229 8.04702 0.235986 8.52526C0.21918 8.87068 0.168966 9.35341 0.12437 9.598C-0.121032 10.9449 -0.157454 12.4957 -0.13273 20.5402C-0.112603 27.096 -0.101314 27.9138 -0.0259157 28.2793C0.0204165 28.504 0.0791108 28.8948 0.10455 29.1477C0.333044 31.4214 0.359607 31.6226 0.489204 32.0594C0.564245 32.3123 0.646795 32.6486 0.672643 32.8068C0.698491 32.965 0.800044 33.2939 0.898327 33.5376C0.996559 33.7813 1.07696 34.0258 1.07696 34.0809C1.07696 34.1898 1.56373 35.1883 1.78211 35.5275C2.33733 36.3897 3.31868 37.3185 4.1048 37.7257C4.36185 37.8589 4.63075 38.0096 4.70237 38.0606C5.11701 38.3558 7.72617 39.0508 8.63723 39.1086C8.90414 39.1255 9.49031 39.1939 9.93984 39.2605C11.7541 39.5294 11.2816 39.5175 20.1053 39.5175H28.3808L28.9938 39.406C29.9357 39.2348 30.6271 39.1344 30.8688 39.134C31.2143 39.1333 32.2059 38.9907 32.4566 38.9055C32.5818 38.863 32.8998 38.7829 33.1633 38.7275C33.7657 38.6009 34.016 38.5292 34.1498 38.445C34.2078 38.4085 34.3932 38.3398 34.5618 38.2923C34.7304 38.2449 34.9832 38.1416 35.1237 38.0629C35.2642 37.9842 35.4366 37.9034 35.5068 37.8834C35.8133 37.7958 36.6735 37.1572 37.1716 36.6472C37.6132 36.1951 38.0099 35.6892 38.0099 35.5781C38.0099 35.5436 38.0634 35.4503 38.1289 35.3709C38.3271 35.1303 38.6599 34.4791 38.7509 34.1538C38.798 33.9852 38.8785 33.7553 38.9298 33.643C39.0253 33.4337 39.1333 33.0739 39.2364 32.6213C39.2685 32.4808 39.3494 32.1245 39.4163 31.8295C39.4832 31.5345 39.5606 30.9598 39.5884 30.5525C39.6161 30.1451 39.6758 29.6535 39.721 29.4601C39.8076 29.0895 39.8626 28.4876 39.9538 26.9118C40.0206 25.7579 39.9817 11.7466 39.9099 11.1154C39.8844 10.8907 39.8039 10.2355 39.7311 9.65955C39.6582 9.08359 39.5623 8.27904 39.5181 7.87165C39.4737 7.46427 39.3825 6.92407 39.3153 6.67121C39.2481 6.41835 39.167 6.09652 39.1351 5.95605C39.1033 5.81557 39.0187 5.5742 38.9472 5.41967C38.8757 5.26515 38.7725 4.97781 38.7179 4.78114C38.6633 4.58447 38.5773 4.36609 38.5266 4.29585C38.4761 4.22561 38.4059 4.08095 38.3708 3.97434C38.3357 3.86773 38.234 3.68383 38.1448 3.56567C38.0556 3.44752 37.8765 3.20104 37.7468 3.01801C37.4256 2.56465 36.5392 1.72327 36.2083 1.55771C36.0613 1.48415 35.8951 1.38413 35.8389 1.3355C35.6394 1.16284 34.8605 0.781605 34.539 0.699208C34.3595 0.653234 34.1417 0.572012 34.0552 0.518783C33.9686 0.465555 33.5184 0.336878 33.0548 0.232822C32.5913 0.128817 32.157 0.0227691 32.0897 -0.00277233C32.0224 -0.0283648 31.5627 -0.0832789 31.068 -0.12486C30.5734 -0.166442 30.0652 -0.233412 29.9388 -0.273614C29.4061 -0.443158 28.1544 -0.471867 20.8971 -0.481266C16.9778 -0.486374 13.1849 -0.474063 12.4684 -0.453988ZM10.7756 0.590044C10.7576 0.608536 10.4703 0.644345 10.1371 0.669734C9.80381 0.695071 9.36225 0.751415 9.15582 0.794938C8.94935 0.838409 8.48071 0.910538 8.11435 0.955236C7.74798 0.999882 7.31924 1.08213 7.16155 1.13801C7.00386 1.1939 6.68326 1.28416 6.4491 1.33861C6.21488 1.39302 5.89306 1.50438 5.73393 1.58606C5.57476 1.66769 5.3504 1.75902 5.23531 1.78901C5.12022 1.81905 4.93081 1.91258 4.81434 1.99697C4.69787 2.08136 4.59004 2.15037 4.57471 2.15037C4.4917 2.15037 3.75744 2.71714 3.42356 3.03891C2.98619 3.46039 2.40435 4.29978 2.19685 4.80862C2.12192 4.99232 2.01076 5.24043 1.94982 5.35991C1.88882 5.47944 1.81608 5.7084 1.78809 5.8688C1.73486 6.17407 1.55367 6.72944 1.47296 6.83498C1.44701 6.86884 1.40492 7.13683 1.37943 7.4305C1.35394 7.72423 1.29989 8.11026 1.25938 8.28844C1.21882 8.46656 1.14393 8.92268 1.093 9.30197C1.00621 9.94771 1.00034 10.6138 1.00039 19.774L1.00044 29.5563L1.13668 30.0927C1.21162 30.3877 1.28737 30.79 1.3051 30.9867C1.36415 31.6424 1.44573 32.0561 1.58697 32.417C1.66401 32.6136 1.74283 32.8982 1.76219 33.0492C1.78155 33.2003 1.87661 33.4813 1.97352 33.6737C2.07042 33.8661 2.1497 34.0618 2.1497 34.1087C2.1497 34.1555 2.24165 34.3394 2.35404 34.5173C2.46642 34.6953 2.55837 34.8557 2.55837 34.8737C2.55837 35.0036 3.75412 36.3759 3.86726 36.3759C3.89352 36.3759 3.99482 36.4532 4.09234 36.5477C4.18985 36.6422 4.40757 36.7919 4.57614 36.8802C4.74471 36.9685 4.96274 37.0866 5.06061 37.1426C5.15854 37.1985 5.27347 37.2447 5.31603 37.2452C5.35863 37.2457 5.5199 37.3161 5.67442 37.4015C5.82895 37.4869 6.11624 37.5908 6.31291 37.6324C6.50953 37.674 6.85434 37.7655 7.07915 37.8356C7.30392 37.9058 7.76371 37.9965 8.10086 38.0372C8.43801 38.0778 8.96671 38.1565 9.27577 38.212C10.7396 38.475 11.4979 38.468 11.4979 38.1915C11.4979 38.0944 11.398 38.0041 10.9998 37.7411C10.7259 37.5603 10.424 37.3723 10.329 37.3235C10.0429 37.1765 9.26524 36.3869 8.80979 35.7811C8.5744 35.468 8.38182 35.1899 8.38182 35.163C8.38182 35.1362 8.30391 34.9671 8.2087 34.7873C8.11343 34.6074 7.98567 34.2924 7.92478 34.0873C7.86384 33.8821 7.76785 33.6067 7.71151 33.4752C7.65516 33.3437 7.57854 33.0978 7.5413 32.9287C7.50406 32.7596 7.40307 32.334 7.31694 31.9828C7.17636 31.4098 7.08242 30.7063 6.94526 29.1988C6.92222 28.9459 6.87773 28.5781 6.84632 28.3814C6.80698 28.1352 6.78108 25.6455 6.76315 20.387C6.73644 12.5742 6.7605 11.0735 6.93265 9.8128C6.9729 9.5178 7.02883 9.03507 7.05693 8.74006C7.17074 7.54544 7.48858 5.98818 7.71907 5.4963C7.79809 5.32773 7.90036 5.04345 7.94644 4.86451C8.04666 4.47505 8.20737 4.17494 8.77648 3.3145C9.11532 2.80219 9.32092 2.55699 9.75094 2.15236C10.0507 1.87033 10.3223 1.63954 10.3544 1.63954C10.3866 1.63954 10.5478 1.53467 10.7127 1.40655C10.8776 1.27839 11.1106 1.13014 11.2303 1.07712C11.4923 0.961059 11.5482 0.849903 11.413 0.714585C11.314 0.615688 10.8407 0.523177 10.7756 0.590044ZM17.7811 11.2475C17.0277 11.609 16.4446 12.3294 16.2911 13.0879C16.2195 13.4422 16.1744 23.6456 16.2376 25.1925L16.2827 26.2944L16.4827 26.6669C16.7197 27.108 17.2956 27.7178 17.6286 27.8801C17.9479 28.0357 18.6493 28.2159 18.8027 28.1816C18.873 28.166 19.1305 28.108 19.3751 28.0529C19.6196 27.9978 19.9736 27.871 20.1618 27.7712C20.3499 27.6713 20.5411 27.5896 20.5867 27.5896C20.6323 27.5896 20.7538 27.5202 20.8569 27.4352C20.9599 27.3503 21.1379 27.2477 21.2525 27.2073C21.367 27.1669 21.535 27.0783 21.6259 27.0103C21.7167 26.9424 21.8979 26.8404 22.0286 26.7836C22.1592 26.7269 22.3109 26.6356 22.3657 26.5808C22.4205 26.526 22.5361 26.4565 22.6225 26.4264C22.709 26.3962 22.9083 26.2893 23.0654 26.1888C23.2225 26.0883 23.3615 26.0061 23.3742 26.0061C23.387 26.0061 23.5762 25.8991 23.7947 25.7682C24.6238 25.2719 24.7707 25.1887 24.8184 25.1887C24.8454 25.1887 24.9565 25.118 25.0653 25.0316C25.1741 24.9451 25.4129 24.798 25.5959 24.7047C25.779 24.6114 26.023 24.481 26.1381 24.4149C26.2533 24.3488 26.5948 24.1569 26.8971 23.9883C27.1994 23.8197 27.5952 23.5824 27.7766 23.4609C27.958 23.3394 28.1797 23.2154 28.2691 23.1854C28.3586 23.1554 28.5401 23.0544 28.6725 22.9609C28.8049 22.8674 28.9888 22.7549 29.0812 22.7108C29.7397 22.3967 30.5891 21.8162 31.1174 21.3192C31.5004 20.9589 31.5189 20.9306 31.6675 20.4751C31.8869 19.8029 31.9101 19.525 31.7861 19.052C31.7298 18.8376 31.6368 18.57 31.5794 18.4575C31.4336 18.1718 30.8913 17.626 30.5262 17.3977C30.3577 17.2923 30.1738 17.1658 30.1176 17.1166C30.0614 17.0674 29.9599 17.0103 29.8921 16.9897C29.8242 16.9691 29.7133 16.8864 29.6457 16.806C29.5756 16.7227 29.4312 16.6352 29.3101 16.6026C29.1932 16.5711 29.0167 16.4827 28.918 16.4063C28.7142 16.2484 28.2741 15.9926 27.4102 15.5297C27.2978 15.4695 27.0909 15.3332 26.9504 15.2268C26.81 15.1204 26.6086 15.0098 26.503 14.9812C26.3973 14.9525 26.1989 14.8468 26.0619 14.7463C25.925 14.6458 25.7992 14.5635 25.7824 14.5635C25.7657 14.5635 25.6309 14.4863 25.4828 14.3918C25.3347 14.2974 25.1562 14.2027 25.0859 14.1814C24.935 14.1356 24.6087 13.941 24.2843 13.7033C24.1562 13.6095 23.9464 13.4877 23.8181 13.4327C23.6899 13.3777 23.4916 13.2746 23.3776 13.2036C22.9575 12.9418 22.5513 12.7064 22.3274 12.5951C22.201 12.5321 21.9717 12.3976 21.8178 12.2961C21.6639 12.1946 21.5123 12.1115 21.4809 12.1115C21.4495 12.1115 21.382 12.0654 21.3309 12.0089C21.2798 11.9525 21.1441 11.879 21.0293 11.8454C20.9144 11.812 20.7107 11.7101 20.5765 11.619C20.4423 11.528 20.2814 11.4392 20.2189 11.4218C20.1565 11.4044 19.9444 11.3173 19.7478 11.2283C19.4223 11.081 19.3374 11.0653 18.8027 11.0528L18.2153 11.0391L17.7811 11.2475Z" fill="#C34A4E"/>
</g>
<rect x="0.666667" y="0.666667" width="38.6667" height="38.6667" rx="9.33333" stroke="#C34A4E" stroke-width="1.33333"/>
<defs>
<clipPath id="clip0_3443_15613">
<rect width="40" height="40" rx="10" fill="white"/>
</clipPath>
</defs>
</svg>
