<svg width="24" height="24" viewBox="0 0 24 24" fill="none" xmlns="http://www.w3.org/2000/svg">
<path d="M20.4615 2.76923V18.1538C20.4615 18.3579 20.3805 18.5535 20.2362 18.6978C20.092 18.842 19.8963 18.9231 19.6923 18.9231H6.61538C6.20735 18.9231 5.81604 19.0852 5.52752 19.3737C5.239 19.6622 5.07691 20.0535 5.07691 20.4615H18.1538C18.3579 20.4615 18.5535 20.5426 18.6978 20.6868C18.842 20.8311 18.9231 21.0268 18.9231 21.2308C18.9231 21.4348 18.842 21.6304 18.6978 21.7747C18.5535 21.919 18.3579 22 18.1538 22H4.30768C4.10367 22 3.90801 21.919 3.76375 21.7747C3.6195 21.6304 3.53845 21.4348 3.53845 21.2308V5.07692C3.53845 4.26087 3.86263 3.47824 4.43966 2.90121C5.0167 2.32417 5.79932 2 6.61538 2H19.6923C19.8963 2 20.092 2.08104 20.2362 2.2253C20.3805 2.36956 20.4615 2.56522 20.4615 2.76923Z" fill="#60A4F1"/>
</svg>
