<svg width="24" height="24" viewBox="0 0 24 24" fill="none" xmlns="http://www.w3.org/2000/svg">
<path d="M17.4755 3.19751C17.9123 3.19751 18.3453 3.2832 18.7489 3.45044C19.1524 3.61771 19.5192 3.8631 19.828 4.17212C20.1371 4.48089 20.3824 4.84765 20.5497 5.25122C20.717 5.65483 20.8026 6.08775 20.8026 6.52466C20.8026 6.96152 20.717 7.39453 20.5497 7.7981C20.3824 8.20157 20.137 8.56849 19.828 8.8772L9.98815 18.717C9.51438 19.1909 8.92144 19.5283 8.27233 19.6946L4.04186 20.7815C3.92824 20.811 3.80848 20.8103 3.69518 20.7795C3.58187 20.7488 3.47853 20.6886 3.39538 20.6057C3.31236 20.5229 3.25269 20.4199 3.22155 20.3069C3.19045 20.1937 3.18854 20.0739 3.21764 19.9602L4.30553 15.7278C4.47245 15.0789 4.81065 14.4861 5.28405 14.012L15.1239 4.17212C15.4326 3.86314 15.7995 3.61769 16.203 3.45044C16.6064 3.28329 17.0388 3.19756 17.4755 3.19751ZM17.4755 4.5481C16.9513 4.5482 16.4486 4.75658 16.078 5.1272L15.1395 6.0647L17.9354 8.8606L18.8739 7.92212C19.2444 7.55146 19.453 7.04877 19.453 6.52466C19.453 6.00056 19.2444 5.49787 18.8739 5.1272C18.5032 4.75649 17.9997 4.5481 17.4755 4.5481Z" fill="#60A4F1" stroke="#60A4F1" stroke-width="0.1"/>
</svg>
