<svg width="24" height="24" viewBox="0 0 24 24" fill="none" xmlns="http://www.w3.org/2000/svg">
<path fill-rule="evenodd" clip-rule="evenodd" d="M12.6073 1.06685C12.4378 1.10365 12.1303 1.21505 11.9239 1.31442C11.4669 1.53432 10.9298 2.04916 10.6967 2.49083C10.5806 2.71069 8.37272 8.73396 8.37272 8.83072C8.37272 8.84016 9.17387 8.85632 10.153 8.86654C11.8288 8.88409 11.9548 8.89171 12.3003 8.99593C13.613 9.3919 14.6145 10.3942 15.0083 11.706C15.1105 12.0463 15.1206 12.1989 15.1466 13.7902L15.1746 15.5072L16.0392 15.7919C17.0854 16.1364 17.4991 16.2082 17.9958 16.1311C18.4191 16.0653 18.8063 15.9351 19.1198 15.7531C19.4473 15.5629 19.9608 15.0224 20.1456 14.6733C20.3519 14.2836 22.8845 7.24378 22.9543 6.8659C23.0651 6.26629 22.9747 5.67061 22.6819 5.0707C22.4603 4.61664 21.8963 4.03571 21.4751 3.8278C21.0692 3.6274 14.1512 1.14262 13.7749 1.06208C13.3811 0.977804 13.0102 0.979278 12.6073 1.06685ZM13.5048 4.24549C12.9752 4.4307 12.6857 5.01773 12.862 5.54879C13.0006 5.96628 13.3895 6.25007 13.8232 6.25007C14.4419 6.25007 14.8705 5.82383 14.8714 5.20766C14.8723 4.5193 14.1587 4.01679 13.5048 4.24549ZM15.0764 7.59877C14.7852 7.7061 14.4905 8.04143 14.4166 8.34964C14.2856 8.89598 14.6341 9.45598 15.1878 9.58891C15.8757 9.75402 16.5638 9.12876 16.4536 8.43888C16.3513 7.79838 15.6671 7.38113 15.0764 7.59877ZM3.18285 9.98429C2.11778 10.2637 1.30514 11.111 1.07923 12.1778C0.974373 12.673 0.973243 20.215 1.07795 20.7094C1.31957 21.8502 2.27194 22.7602 3.43342 22.9601C3.62922 22.9938 5.11533 23.0065 7.75883 22.9969L11.7859 22.9823L12.1448 22.8511C13.1056 22.4999 13.777 21.7728 14.0206 20.8196C14.1147 20.4516 14.1187 20.2731 14.1187 16.4467C14.1187 12.6349 14.1144 12.4406 14.0217 12.0779C13.884 11.5391 13.6588 11.1457 13.2595 10.7462C12.8603 10.3466 12.4671 10.1213 11.9286 9.98351C11.5656 9.89063 11.3767 9.88655 7.54225 9.88916C3.7825 9.89171 3.51352 9.89756 3.18285 9.98429ZM16.7953 10.9154C16.2903 11.0379 15.9849 11.4183 15.9849 11.9249C15.9849 12.2773 16.0688 12.4717 16.3177 12.6964C16.6526 12.9988 17.0293 13.056 17.4337 12.8659C17.7274 12.7279 17.8136 12.6376 17.9534 12.3213C18.124 11.9354 18.0367 11.5122 17.7207 11.193C17.4929 10.963 17.0932 10.843 16.7953 10.9154ZM4.51705 12.8774C4.00664 13.1094 3.76703 13.7332 3.9952 14.2358C4.34821 15.0133 5.45655 15.0569 5.85577 14.3091C6.01966 14.0021 5.99879 13.5282 5.80873 13.2409C5.54824 12.847 4.95262 12.6794 4.51705 12.8774ZM9.79694 12.8641C9.57192 12.9616 9.36972 13.1572 9.24705 13.396C9.09951 13.683 9.13777 14.138 9.33265 14.4149C9.80205 15.0817 10.8276 14.9601 11.1449 14.2001C11.4874 13.3796 10.6112 12.5112 9.79694 12.8641ZM7.27499 15.4379C7.06941 15.5036 6.83117 15.6796 6.71384 15.8526C6.41957 16.2865 6.48224 16.841 6.86555 17.1946C7.30436 17.5993 7.91152 17.5763 8.31369 17.1397C8.65167 16.7729 8.69744 16.3304 8.44256 15.8952C8.22941 15.5313 7.66935 15.3119 7.27499 15.4379ZM4.5175 18.1125C4.31521 18.2018 4.10359 18.4231 3.99589 18.658C3.68781 19.33 4.22406 20.1115 4.98975 20.1066C5.33289 20.1043 5.79218 19.7732 5.92045 19.4356C6.04726 19.1018 5.92021 18.5387 5.66512 18.3041C5.39821 18.0585 4.84816 17.9667 4.5175 18.1125ZM9.69872 18.1543C9.37061 18.3297 9.19219 18.6122 9.16783 18.9948C9.1445 19.3611 9.24754 19.6099 9.52261 19.8516C10.1743 20.4242 11.2159 19.9465 11.2201 19.073C11.2216 18.759 11.0181 18.3681 10.7663 18.2014C10.4791 18.0112 10.0055 17.9903 9.69872 18.1543Z" fill="#60A4F1"/>
</svg>
