<svg width="24" height="24" viewBox="0 0 24 24" fill="none" xmlns="http://www.w3.org/2000/svg">
<path d="M11.9549 3C16.9658 3 21.0458 7.07923 21.0458 12.0901V17.5542C21.0457 19.4535 19.4985 21 17.5992 21H17.4817C15.5825 20.9999 14.0361 19.4534 14.0359 17.5542V15.853C14.0361 13.9537 15.5825 12.4073 17.4817 12.4072H17.5992C18.3841 12.4072 19.1089 12.6716 19.6891 13.1156V12.0901C19.689 7.82996 16.2241 4.35676 11.9549 4.35676C9.86561 4.35686 7.9297 5.16165 6.49163 6.62686C5.0445 8.10116 4.27636 10.0642 4.31251 12.1625V13.1147C4.89255 12.6711 5.61698 12.4073 6.40153 12.4072H6.51901C8.41834 12.4072 9.96546 13.9537 9.96567 15.853V17.5542C9.96546 19.4535 8.41834 21 6.51901 21H6.40153C4.50231 20.9999 2.95597 19.4534 2.95576 17.5542V12.1811C2.91053 9.72988 3.82394 7.41395 5.52441 5.67731C7.22477 3.94986 9.50386 3.0001 11.9549 3Z" fill="#60A4F1"/>
</svg>
