<svg width="48" height="48" viewBox="0 0 48 48" fill="none" xmlns="http://www.w3.org/2000/svg">
<rect width="48" height="48" rx="10" fill="#FDF1D4"/>
<path fill-rule="evenodd" clip-rule="evenodd" d="M13.8492 13.0622C13.487 13.1715 13.161 13.5063 13.0541 13.8789C13.0251 13.98 13.0014 14.7394 13.0014 15.5664V17.0703H24.0026H35.0038L34.9872 15.4585C34.9693 13.7023 34.9683 13.6964 34.6383 13.3664C34.2765 13.0047 35.2127 13.035 24.0809 13.0248C18.5384 13.0197 13.9342 13.0366 13.8492 13.0622ZM13.0142 26.1858C13.0273 33.4948 13.036 34.1772 13.1183 34.3272C13.233 34.5363 13.4684 34.7717 13.6775 34.8864C13.8282 34.9691 14.6437 34.9762 23.9996 34.9762C33.3555 34.9762 34.171 34.9691 34.3217 34.8864C34.5308 34.7717 34.7663 34.5363 34.8809 34.3272C34.9632 34.1772 34.9719 33.4948 34.985 26.1858L34.9992 18.208H23.9996H13L13.0142 26.1858ZM16.2731 20.5908C16.2102 20.6162 16.1066 20.7033 16.0429 20.7843C15.9288 20.9292 15.927 20.9659 15.927 23.1447V25.3578L16.0851 25.5348L16.2432 25.7117L19.0107 25.7267C22.0544 25.7432 22.0121 25.7473 22.1837 25.4155C22.3063 25.1785 22.3063 21.098 22.1837 20.861C22.0147 20.5341 22.0465 20.5374 19.0856 20.5411C17.6017 20.543 16.3361 20.5654 16.2731 20.5908ZM24.3118 20.6219C23.9635 20.8123 23.9177 21.2804 24.2223 21.5367L24.3871 21.6754H28.0104C30.7041 21.6754 31.6701 21.6589 31.7757 21.6107C32.0939 21.4658 32.1646 21.022 31.9141 20.7417L31.756 20.5648L28.1081 20.5528C24.9556 20.5424 24.44 20.5518 24.3118 20.6219ZM24.2223 24.7398C24.0146 24.9145 23.9577 25.1756 24.077 25.4063C24.2568 25.754 24.112 25.7425 28.1211 25.7264L31.756 25.7117L31.9141 25.5348C32.1646 25.2545 32.0939 24.8107 31.7757 24.6658C31.6701 24.6176 30.7041 24.6011 28.0104 24.6011H24.3871L24.2223 24.7398ZM16.2039 28.1441C15.8957 28.3149 15.8387 28.7264 16.0851 29.0022L16.2432 29.1791H23.9996H31.756L31.9141 29.0022C32.1619 28.7248 32.1028 28.3057 31.7934 28.1457C31.5785 28.0345 16.4043 28.033 16.2039 28.1441ZM16.2039 31.6115C15.8957 31.7823 15.8387 32.1938 16.0851 32.4696L16.2432 32.6465L20.0808 32.6624C22.1914 32.671 24.0002 32.6633 24.1003 32.6452C24.538 32.5661 24.7022 32.0135 24.383 31.6943L24.2247 31.5359L20.279 31.5378C17.108 31.5394 16.308 31.5538 16.2039 31.6115Z" fill="#FFCD93"/>
</svg>
