<svg width="48" height="48" viewBox="0 0 48 48" fill="none" xmlns="http://www.w3.org/2000/svg">
<rect width="48" height="48" rx="10" fill="#F9E2E2"/>
<path d="M34.4 14.6H13.6V32.8L25.6796 20.7178C25.8003 20.5969 25.9437 20.501 26.1015 20.4356C26.2593 20.3702 26.4285 20.3365 26.5993 20.3365C26.7702 20.3365 26.9394 20.3702 27.0972 20.4356C27.255 20.501 27.3984 20.5969 27.5191 20.7178L34.4 27.613V14.6ZM11 13.2909C11.0024 12.9495 11.139 12.6227 11.3803 12.3812C11.6216 12.1396 11.9482 12.0027 12.2896 12H35.7104C36.4228 12 37 12.5785 37 13.2909V34.1091C36.9976 34.4505 36.861 34.7773 36.6197 35.0188C36.3784 35.2604 36.0518 35.3973 35.7104 35.4H12.2896C11.9475 35.3997 11.6194 35.2635 11.3776 35.0214C11.1358 34.7794 11 34.4512 11 34.1091V13.2909ZM18.8 22.4C18.1104 22.4 17.4491 22.1261 16.9615 21.6385C16.4739 21.1509 16.2 20.4896 16.2 19.8C16.2 19.1104 16.4739 18.4491 16.9615 17.9615C17.4491 17.4739 18.1104 17.2 18.8 17.2C19.4896 17.2 20.1509 17.4739 20.6385 17.9615C21.1261 18.4491 21.4 19.1104 21.4 19.8C21.4 20.4896 21.1261 21.1509 20.6385 21.6385C20.1509 22.1261 19.4896 22.4 18.8 22.4Z" fill="#D27679"/>
</svg>
