<svg width="48" height="48" viewBox="0 0 48 48" fill="none" xmlns="http://www.w3.org/2000/svg">
<rect width="48" height="48" rx="10" fill="#F9E2E2"/>
<path fill-rule="evenodd" clip-rule="evenodd" d="M24.6993 11.4102C24.504 11.4526 24.1499 11.5809 23.9123 11.6953C23.386 11.9485 22.7676 12.5414 22.4991 13.05C22.3655 13.3031 19.823 20.239 19.823 20.3504C19.823 20.3613 20.7456 20.3799 21.8731 20.3917C23.8028 20.4119 23.9479 20.4207 24.3457 20.5407C25.8573 20.9967 27.0106 22.1508 27.464 23.6613C27.5817 24.0533 27.5934 24.229 27.6233 26.0614L27.6555 28.0385L28.6511 28.3663C29.8559 28.7631 30.3323 28.8457 30.9041 28.7569C31.3917 28.6812 31.8375 28.5313 32.1985 28.3216C32.5756 28.1026 33.1669 27.4803 33.3797 27.0782C33.6173 26.6295 36.5335 18.5231 36.6139 18.0879C36.7415 17.3975 36.6374 16.7115 36.3003 16.0207C36.0451 15.4979 35.3956 14.8289 34.9107 14.5895C34.4433 14.3587 26.477 11.4975 26.0438 11.4047C25.5902 11.3077 25.1632 11.3094 24.6993 11.4102ZM25.7328 15.0705C25.1229 15.2838 24.7895 15.9597 24.9925 16.5712C25.1521 17.052 25.6 17.3788 26.0993 17.3788C26.8118 17.3788 27.3053 16.888 27.3063 16.1784C27.3075 15.3858 26.4857 14.8071 25.7328 15.0705ZM27.5424 18.9318C27.2071 19.0554 26.8678 19.4416 26.7827 19.7965C26.6318 20.4256 27.0332 21.0704 27.6707 21.2235C28.4628 21.4136 29.2552 20.6936 29.1283 19.8992C29.0105 19.1617 28.2227 18.6812 27.5424 18.9318ZM13.8468 21.6788C12.6204 22.0005 11.6846 22.9763 11.4245 24.2047C11.3037 24.7749 11.3024 33.4596 11.423 34.0289C11.7012 35.3425 12.7979 36.3904 14.1354 36.6207C14.3608 36.6594 16.0721 36.674 19.1161 36.663L23.7534 36.6463L24.1667 36.4952C25.273 36.0908 26.0462 35.2534 26.3267 34.1559C26.4351 33.732 26.4397 33.5266 26.4397 29.1203C26.4397 24.731 26.4347 24.5072 26.328 24.0896C26.1693 23.4692 25.9101 23.0161 25.4503 22.5561C24.9905 22.096 24.5378 21.8366 23.9177 21.6779C23.4997 21.5709 23.2822 21.5662 18.8668 21.5692C14.5373 21.5722 14.2276 21.5789 13.8468 21.6788ZM29.5218 22.7509C28.9402 22.8921 28.5886 23.3301 28.5886 23.9134C28.5886 24.3193 28.6852 24.5431 28.9718 24.8019C29.3574 25.15 29.7913 25.2159 30.2569 24.997C30.5951 24.8381 30.6943 24.7341 30.8554 24.3699C31.0518 23.9255 30.9512 23.4382 30.5874 23.0707C30.325 22.8058 29.8648 22.6676 29.5218 22.7509ZM15.3832 25.0102C14.7954 25.2774 14.5195 25.9957 14.7823 26.5745C15.1888 27.4697 16.465 27.52 16.9247 26.6589C17.1135 26.3054 17.0894 25.7597 16.8706 25.4288C16.5706 24.9753 15.8848 24.7822 15.3832 25.0102ZM21.4631 24.9949C21.2039 25.1072 20.9711 25.3324 20.8298 25.6074C20.66 25.9379 20.704 26.4619 20.9284 26.7807C21.4689 27.5486 22.6499 27.4086 23.0153 26.5334C23.4096 25.5886 22.4006 24.5886 21.4631 24.9949ZM18.559 27.9587C18.3223 28.0343 18.0479 28.237 17.9128 28.4362C17.574 28.9359 17.6461 29.5744 18.0875 29.9815C18.5928 30.4476 19.292 30.4211 19.7551 29.9184C20.1443 29.496 20.197 28.9865 19.9035 28.4853C19.658 28.0663 19.0131 27.8136 18.559 27.9587ZM15.3837 31.0386C15.1508 31.1414 14.9071 31.3962 14.7831 31.6667C14.4283 32.4405 15.0458 33.3405 15.9275 33.3347C16.3226 33.3322 16.8515 32.9509 16.9992 32.5621C17.1452 32.1778 16.9989 31.5293 16.7052 31.2592C16.3979 30.9764 15.7645 30.8707 15.3837 31.0386ZM21.35 31.0867C20.9721 31.2887 20.7667 31.6139 20.7386 32.0545C20.7118 32.4764 20.8304 32.7629 21.1472 33.0412C21.8976 33.7005 23.097 33.1504 23.1018 32.1446C23.1036 31.783 22.8692 31.3329 22.5793 31.1409C22.2486 30.9219 21.7032 30.8979 21.35 31.0867Z" fill="#D27679"/>
</svg>
