<svg width="48" height="48" viewBox="0 0 48 48" fill="none" xmlns="http://www.w3.org/2000/svg">
<rect width="48" height="48" rx="12" fill="#FEDFF3"/>
<g clip-path="url(#clip0_2666_17625)">
<path d="M13.4288 26.2981C12.6676 25.5369 12.6676 24.3017 13.4288 23.5404C14.1901 22.7792 15.4253 22.7792 16.1865 23.5404L19.4039 26.7578L26.7578 19.4039L23.5404 16.1865C22.7792 15.4253 22.7792 14.19 23.5404 13.4288C24.3017 12.6676 25.5369 12.6676 26.2982 13.4288L26.7578 13.8884L27.2174 13.4288C27.9786 12.6676 29.2139 12.6676 29.9751 13.4288L31.354 14.8077C31.8624 14.2992 32.684 14.2992 33.1924 14.8077C33.7009 15.3161 33.7009 16.1377 33.1924 16.6461L34.5713 18.025C35.3325 18.7862 35.3325 20.0215 34.5713 20.7827L34.1117 21.2423L34.5713 21.702C35.3325 22.4632 35.3325 23.6984 34.5713 24.4597C33.8101 25.2209 32.5748 25.2209 31.8136 24.4597L28.5962 21.2423L21.2423 28.5962L24.4597 31.8136C25.2209 32.5748 25.2209 33.81 24.4597 34.5713C23.6984 35.3325 22.4632 35.3325 21.702 34.5713L21.2423 34.1117L20.7827 34.5713C20.0215 35.3325 18.7862 35.3325 18.025 34.5713L16.6461 33.1924C16.1377 33.7009 15.3161 33.7009 14.8077 33.1924C14.2992 32.684 14.2992 31.8624 14.8077 31.354L13.4288 29.9751C12.6676 29.2139 12.6676 27.9786 13.4288 27.2174L13.8884 26.7578L13.4288 26.2981Z" fill="#FC95D8"/>
</g>
<defs>
<clipPath id="clip0_2666_17625">
<rect width="28.8" height="28.8" fill="white" transform="translate(9.6001 9.6001)"/>
</clipPath>
</defs>
</svg>
