<svg width="48" height="48" viewBox="0 0 48 48" fill="none" xmlns="http://www.w3.org/2000/svg">
<rect width="48" height="48" rx="10" fill="#E6F2FF"/>
<path d="M34.1539 12.9231V31.3846C34.1539 31.6294 34.0566 31.8642 33.8835 32.0373C33.7104 32.2104 33.4756 32.3077 33.2308 32.3077H17.5385C17.0489 32.3077 16.5793 32.5022 16.2331 32.8484C15.8868 33.1946 15.6923 33.6642 15.6923 34.1538H31.3847C31.6295 34.1538 31.8643 34.2511 32.0374 34.4242C32.2105 34.5973 32.3077 34.8321 32.3077 35.0769C32.3077 35.3217 32.2105 35.5565 32.0374 35.7296C31.8643 35.9027 31.6295 36 31.3847 36H14.7693C14.5245 36 14.2897 35.9027 14.1166 35.7296C13.9434 35.5565 13.8462 35.3217 13.8462 35.0769V15.6923C13.8462 14.713 14.2352 13.7739 14.9276 13.0815C15.6201 12.389 16.5592 12 17.5385 12H33.2308C33.4756 12 33.7104 12.0973 33.8835 12.2704C34.0566 12.4435 34.1539 12.6783 34.1539 12.9231Z" fill="#60A4F1"/>
</svg>
