<svg width="48" height="48" viewBox="0 0 48 48" fill="none" xmlns="http://www.w3.org/2000/svg">
<rect width="48" height="48" rx="10" fill="#D7F4F0"/>
<path d="M28.3334 12.0833V15.3333H20.7501C19.8881 15.3333 19.0615 15.6757 18.452 16.2852C17.8425 16.8947 17.5001 17.7214 17.5001 18.5833V32.6667H14.2501C13.9628 32.6667 13.6872 32.5525 13.484 32.3494C13.2809 32.1462 13.1667 31.8706 13.1667 31.5833V12.0833C13.1667 11.796 13.2809 11.5205 13.484 11.3173C13.6872 11.1141 13.9628 11 14.2501 11H27.2501C27.5374 11 27.8129 11.1141 28.0161 11.3173C28.2193 11.5205 28.3334 11.796 28.3334 12.0833ZM34.8334 18.5833V35.9167C34.8334 36.204 34.7193 36.4795 34.5161 36.6827C34.3129 36.8859 34.0374 37 33.7501 37H20.7501C20.4628 37 20.1872 36.8859 19.984 36.6827C19.7809 36.4795 19.6667 36.204 19.6667 35.9167V18.5833C19.6667 18.296 19.7809 18.0205 19.984 17.8173C20.1872 17.6141 20.4628 17.5 20.7501 17.5H33.7501C34.0374 17.5 34.3129 17.6141 34.5161 17.8173C34.7193 18.0205 34.8334 18.296 34.8334 18.5833ZM22.9167 21.8333C22.6294 21.8333 22.3539 21.9475 22.1507 22.1506C21.9476 22.3538 21.8334 22.6293 21.8334 22.9167C21.8334 23.204 21.9476 23.4795 22.1507 23.6827C22.3539 23.8859 22.6294 24 22.9167 24H31.5834C31.8707 24 32.1463 23.8859 32.3494 23.6827C32.5526 23.4795 32.6667 23.204 32.6667 22.9167C32.6667 22.6293 32.5526 22.3538 32.3494 22.1506C32.1463 21.9475 31.8707 21.8333 31.5834 21.8333H22.9167ZM22.9167 26.1667C22.6294 26.1667 22.3539 26.2808 22.1507 26.484C21.9476 26.6871 21.8334 26.9627 21.8334 27.25C21.8334 27.5373 21.9476 27.8129 22.1507 28.016C22.3539 28.2192 22.6294 28.3333 22.9167 28.3333H29.4167C29.7041 28.3333 29.9796 28.2192 30.1828 28.016C30.3859 27.8129 30.5001 27.5373 30.5001 27.25C30.5001 26.9627 30.3859 26.6871 30.1828 26.484C29.9796 26.2808 29.7041 26.1667 29.4167 26.1667H22.9167Z" fill="#5ED3C4"/>
</svg>
