<svg width="48" height="48" viewBox="0 0 48 48" fill="none" xmlns="http://www.w3.org/2000/svg">
<rect width="48" height="48" rx="10" fill="#F9E2E2"/>
<path d="M26.7209 25.2072L24.9074 11.9287H24.7718C21.6058 11.9341 18.5707 13.1926 16.33 15.4292C14.0892 17.6658 12.825 20.6986 12.8137 23.8645V24.0001L26.7209 25.2072Z" fill="#E0A3A5"/>
<path d="M25.0428 11.9287H24.9072V24.0001L30.9531 26.4144L37 24.0001V23.8645C36.9887 20.6987 35.7246 17.6661 33.484 15.4296C31.2435 13.193 28.2086 11.9343 25.0428 11.9287Z" fill="#E8B9BA"/>
<path d="M37.0001 24V24.1328C36.9883 27.2992 35.7238 30.3322 33.4828 32.5692C31.2418 34.8062 28.2066 36.0653 25.0402 36.0714H24.7737C21.6074 36.0648 18.5724 34.8055 16.3315 32.5686C14.0907 30.3318 12.826 27.299 12.8137 24.1328V24H37.0001Z" fill="#D27679"/>
<path d="M12.1087 17.3606H23.1939C23.4876 17.3604 23.7693 17.4767 23.9772 17.6841C24.1851 17.8915 24.3022 18.1729 24.3027 18.4665V29.5332C24.3022 29.8268 24.1851 30.1083 23.9772 30.3156C23.7693 30.523 23.4876 30.6394 23.1939 30.6391H12.1087C11.9632 30.6396 11.819 30.6114 11.6845 30.556C11.5499 30.5006 11.4276 30.4192 11.3246 30.3165C11.2216 30.2137 11.1399 30.0916 11.0842 29.9572C11.0285 29.8228 10.9999 29.6787 11 29.5332V18.4665C10.9999 18.321 11.0285 18.1769 11.0842 18.0425C11.1399 17.9081 11.2216 17.786 11.3246 17.6833C11.4276 17.5805 11.5499 17.4991 11.6845 17.4437C11.819 17.3884 11.9632 17.3601 12.1087 17.3606Z" fill="#C34A4E"/>
<path d="M17.7718 20.3118C18.4933 20.2643 19.2084 20.4735 19.7905 20.9024C20.0297 21.1153 20.2172 21.3799 20.3388 21.6761C20.4605 21.9723 20.513 22.2923 20.4925 22.6119C20.5004 23.062 20.3803 23.505 20.1462 23.8896C19.9087 24.2675 19.5672 24.5689 19.1628 24.7578C18.7004 24.9724 18.1951 25.0785 17.6855 25.0679H16.2805V27.6679H14.845V20.3118H17.7718ZM16.2796 23.9443H17.5155C17.9073 23.9722 18.2959 23.8563 18.6085 23.6184C18.7362 23.4966 18.8357 23.3482 18.8998 23.1838C18.964 23.0193 18.9913 22.8428 18.9799 22.6666C18.9799 21.8563 18.5079 21.4508 17.5638 21.4502H16.2796V23.9443Z" fill="white"/>
</svg>
