<svg width="348" height="160" viewBox="0 0 348 160" fill="none" xmlns="http://www.w3.org/2000/svg">
<rect width="348" height="160" fill="#E6F2FF"/>
<mask id="mask0_3667_518" style="mask-type:alpha" maskUnits="userSpaceOnUse" x="0" y="0" width="348" height="160">
<path d="M0 20C0 8.95431 8.95431 0 20 0H328C339.046 0 348 8.95431 348 20V160H0V20Z" fill="url(#paint0_linear_3667_518)"/>
</mask>
<g mask="url(#mask0_3667_518)">
<rect width="173.084" height="143.879" rx="10.997" transform="matrix(1 0 0.00283565 0.999996 31.2541 41)" fill="#C5DCF6"/>
<path d="M42.3057 60.1088L42.3057 52.2429H44.9635C45.5806 52.2429 46.085 52.3543 46.4768 52.577C46.8711 52.7972 47.163 53.0955 47.3525 53.4719C47.5419 53.8483 47.6367 54.2683 47.6367 54.7317C47.6367 55.1952 47.5419 55.6164 47.3525 55.9953C47.1655 56.3743 46.8762 56.6764 46.4844 56.9017C46.0927 57.1245 45.5908 57.2359 44.9788 57.2359H43.0738L43.0738 56.3909H44.9481C45.3706 56.3909 45.7099 56.318 45.9659 56.172C46.222 56.0261 46.4076 55.8289 46.5228 55.5805C46.6406 55.3296 46.6995 55.0467 46.6995 54.7317C46.6995 54.4168 46.6406 54.1351 46.5228 53.8867C46.4076 53.6384 46.2207 53.4438 45.9621 53.3029C45.7035 53.1595 45.3604 53.0879 44.9328 53.0879H43.2582L43.2582 60.1088H42.3057Z" fill="white"/>
<path d="M50.7842 60.2471C50.4104 60.2471 50.0711 60.1767 49.7664 60.0358C49.4617 59.8924 49.2197 59.6863 49.0405 59.4175C48.8612 59.146 48.7716 58.8183 48.7716 58.4342C48.7716 58.0962 48.8382 57.8223 48.9713 57.6123C49.1045 57.3998 49.2824 57.2333 49.5052 57.113C49.728 56.9926 49.9738 56.903 50.2426 56.8441C50.5141 56.7827 50.7868 56.734 51.0607 56.6982C51.4192 56.6521 51.7098 56.6175 51.9326 56.5945C52.1579 56.5689 52.3218 56.5266 52.4242 56.4677C52.5292 56.4088 52.5817 56.3064 52.5817 56.1605L52.5817 56.1298C52.5817 55.7508 52.478 55.4563 52.2706 55.2464C52.0657 55.0364 51.7546 54.9314 51.3373 54.9314C50.9045 54.9314 50.5653 55.0262 50.3195 55.2156C50.0736 55.4051 49.9008 55.6074 49.801 55.8225L48.9406 55.5152C49.0942 55.1568 49.2991 54.8777 49.5551 54.6779C49.8138 54.4757 50.0954 54.3348 50.4001 54.2555C50.7074 54.1735 51.0095 54.1325 51.3065 54.1325C51.496 54.1325 51.7137 54.1556 51.9595 54.2017C52.2078 54.2452 52.4473 54.3361 52.6777 54.4744C52.9107 54.6126 53.104 54.8213 53.2577 55.1004C53.4113 55.3795 53.4881 55.7534 53.4881 56.2219L53.4881 60.1088H52.5817L52.5817 59.3099H52.5356C52.4741 59.4379 52.3717 59.5749 52.2283 59.7209C52.0849 59.8668 51.8942 59.991 51.656 60.0934C51.4179 60.1959 51.1273 60.2471 50.7842 60.2471ZM50.9225 59.4328C51.2809 59.4328 51.5831 59.3624 51.8289 59.2216C52.0773 59.0808 52.2642 58.899 52.3896 58.6762C52.5177 58.4534 52.5817 58.2191 52.5817 57.9733L52.5817 57.1437C52.5433 57.1898 52.4588 57.2321 52.3282 57.2705C52.2002 57.3063 52.0516 57.3383 51.8827 57.3665C51.7162 57.3921 51.5536 57.4151 51.3949 57.4356C51.2387 57.4535 51.1119 57.4689 51.0146 57.4817C50.7791 57.5124 50.5589 57.5624 50.354 57.6315C50.1517 57.6981 49.9879 57.7992 49.8624 57.9349C49.7395 58.0681 49.678 58.2499 49.678 58.4803C49.678 58.7953 49.7945 59.0334 50.0276 59.1947C50.2631 59.3534 50.5614 59.4328 50.9225 59.4328Z" fill="white"/>
<path d="M59.521 51.9971L59.9819 52.5501C59.8027 52.7243 59.5953 52.8459 59.3597 52.915C59.1241 52.9842 58.8578 53.0264 58.5608 53.0418C58.2638 53.0571 57.9335 53.0725 57.5699 53.0879C57.1602 53.1032 56.8209 53.2031 56.5521 53.3874C56.2832 53.5718 56.0758 53.8381 55.9299 54.1863C55.7839 54.5345 55.6905 54.9622 55.6495 55.4691H55.7263C55.926 55.1004 56.2026 54.829 56.5559 54.6549C56.9093 54.4808 57.2882 54.3937 57.6928 54.3937C58.1537 54.3937 58.5685 54.5013 58.9372 54.7163C59.3059 54.9314 59.5978 55.2502 59.8129 55.6727C60.028 56.0952 60.1355 56.6163 60.1355 57.2359C60.1355 57.853 60.0254 58.3856 59.8052 58.8337C59.5876 59.2818 59.2816 59.6274 58.8873 59.8707C58.4955 60.1114 58.0359 60.2317 57.5084 60.2317C56.981 60.2317 56.5188 60.1075 56.1219 59.8592C55.725 59.6082 55.4165 59.2369 55.1963 58.7453C54.9761 58.2511 54.866 57.6405 54.866 56.9133L54.866 56.2834C54.866 54.9698 55.0887 53.9738 55.5343 53.2953C55.9824 52.6167 56.6558 52.2659 57.5545 52.2429C57.872 52.2326 58.155 52.2301 58.4033 52.2352C58.6517 52.2403 58.8681 52.2288 59.0524 52.2006C59.2368 52.1725 59.393 52.1046 59.521 51.9971ZM57.5084 59.4175C57.8644 59.4175 58.1703 59.3278 58.4264 59.1486C58.685 58.9694 58.8834 58.7172 59.0217 58.392C59.16 58.0642 59.2291 57.6789 59.2291 57.2359C59.2291 56.8057 59.1587 56.4396 59.0179 56.1374C58.8796 55.8353 58.6812 55.6048 58.4225 55.4461C58.1639 55.2873 57.8541 55.208 57.4931 55.208C57.2293 55.208 56.9925 55.2528 56.7825 55.3424C56.5726 55.432 56.3933 55.5639 56.2448 55.738C56.0963 55.9121 55.9811 56.1246 55.8992 56.3756C55.8198 56.6265 55.7775 56.9133 55.7724 57.2359C55.7724 57.8965 55.9273 58.4253 56.2371 58.8221C56.547 59.219 56.9707 59.4175 57.5084 59.4175Z" fill="white"/>
<path d="M63.9187 60.2317C63.3861 60.2317 62.9188 60.105 62.5168 59.8515C62.1174 59.598 61.805 59.2433 61.5797 58.7876C61.3569 58.3318 61.2455 57.7992 61.2455 57.1898C61.2455 56.5753 61.3569 56.0389 61.5797 55.5805C61.805 55.1222 62.1174 54.7663 62.5168 54.5128C62.9188 54.2593 63.3861 54.1325 63.9187 54.1325C64.4513 54.1325 64.9173 54.2593 65.3168 54.5128C65.7188 54.7663 66.0311 55.1222 66.2539 55.5805C66.4792 56.0389 66.5919 56.5753 66.5919 57.1898C66.5919 57.7992 66.4792 58.3318 66.2539 58.7876C66.0311 59.2433 65.7188 59.598 65.3168 59.8515C64.9173 60.105 64.4513 60.2317 63.9187 60.2317ZM63.9187 59.4175C64.3233 59.4175 64.6561 59.3138 64.9173 59.1064C65.1785 58.899 65.3718 58.6263 65.4973 58.2883C65.6227 57.9503 65.6855 57.5841 65.6855 57.1898C65.6855 56.7955 65.6227 56.4281 65.4973 56.0875C65.3718 55.747 65.1785 55.4717 64.9173 55.2617C64.6561 55.0518 64.3233 54.9468 63.9187 54.9468C63.5141 54.9468 63.1813 55.0518 62.9201 55.2617C62.6589 55.4717 62.4656 55.747 62.3401 56.0875C62.2147 56.4281 62.1519 56.7955 62.1519 57.1898C62.1519 57.5841 62.2147 57.9503 62.3401 58.2883C62.4656 58.6263 62.6589 58.899 62.9201 59.1064C63.1813 59.3138 63.5141 59.4175 63.9187 59.4175Z" fill="white"/>
<path d="M72.523 54.2094L72.523 60.1088H71.6166L71.6166 54.2094H72.523ZM72.1697 57.0208L72.1697 57.8658C71.9648 57.9426 71.7613 58.0105 71.559 58.0693C71.3567 58.1257 71.1442 58.1705 70.9214 58.2038C70.6986 58.2345 70.4541 58.2499 70.1878 58.2499C69.5195 58.2499 68.9831 58.0693 68.5785 57.7083C68.1765 57.3473 67.9755 56.8057 67.9755 56.0837L67.9755 54.194H68.882L68.882 56.0837C68.882 56.3858 68.9396 56.6342 69.0548 56.8288C69.17 57.0234 69.3262 57.168 69.5234 57.2628C69.7205 57.3575 69.942 57.4049 70.1878 57.4049C70.5719 57.4049 70.9189 57.3703 71.2287 57.3012C71.5411 57.2295 71.8547 57.136 72.1697 57.0208Z" fill="white"/>
<path d="M75.0925 58.7722L77.9347 54.2094H78.9794L78.9794 60.1088H78.0729L78.0729 55.546L75.2461 60.1088H74.1861L74.1861 54.2094H75.0925L75.0925 58.7722Z" fill="white"/>
<path d="M81.546 58.7722L84.3882 54.2094H85.4328L85.4328 60.1088H84.5264L84.5264 55.546L81.6996 60.1088H80.6396L80.6396 54.2094H81.546L81.546 58.7722ZM83.789 52.2429H84.634C84.634 52.6577 84.4906 52.997 84.2038 53.2607C83.917 53.5244 83.5278 53.6563 83.0362 53.6563C82.5523 53.6563 82.1669 53.5244 81.8801 53.2607C81.5959 52.997 81.4538 52.6577 81.4538 52.2429H82.2988C82.2988 52.4426 82.3538 52.618 82.4639 52.7691C82.5766 52.9201 82.7673 52.9957 83.0362 52.9957C83.3051 52.9957 83.4971 52.9201 83.6123 52.7691C83.7301 52.618 83.789 52.4426 83.789 52.2429Z" fill="white"/>
<path d="M89.6126 60.1088L89.6126 59.2638H89.8277C90.0043 59.2638 90.1516 59.2293 90.2694 59.1601C90.3871 59.0884 90.4819 58.9642 90.5536 58.7876C90.6278 58.6083 90.6842 58.36 90.7226 58.0425C90.7635 57.7224 90.793 57.3153 90.8109 56.8211L90.9184 54.2094H94.8514L94.8514 60.1088H93.945L93.945 55.0543H91.7788L91.6866 57.1591C91.6661 57.643 91.6226 58.0693 91.556 58.4381C91.492 58.8042 91.3934 59.1115 91.2603 59.3598C91.1297 59.6082 90.9556 59.7951 90.7379 59.9206C90.5203 60.0461 90.2476 60.1088 89.9198 60.1088H89.6126Z" fill="white"/>
<path d="M97.4209 58.7722L100.263 54.2094H101.308L101.308 60.1088H100.401L100.401 55.546L97.5745 60.1088H96.5145L96.5145 54.2094H97.4209L97.4209 58.7722Z" fill="white"/>
<path d="M105.365 60.2317C104.812 60.2317 104.335 60.1011 103.936 59.8399C103.536 59.5788 103.229 59.219 103.014 58.7607C102.799 58.3024 102.691 57.7787 102.691 57.1898C102.691 56.5906 102.802 56.0619 103.022 55.6036C103.244 55.1427 103.554 54.7829 103.951 54.5243C104.351 54.2631 104.817 54.1325 105.349 54.1325C105.764 54.1325 106.138 54.2094 106.471 54.363C106.804 54.5166 107.076 54.7317 107.289 55.0082C107.501 55.2848 107.633 55.6074 107.684 55.9761H106.778C106.709 55.7073 106.555 55.4691 106.317 55.2617C106.082 55.0518 105.764 54.9468 105.365 54.9468C105.011 54.9468 104.701 55.039 104.435 55.2233C104.171 55.4051 103.965 55.6625 103.817 55.9953C103.671 56.3256 103.598 56.7136 103.598 57.1591C103.598 57.6149 103.67 58.0117 103.813 58.3497C103.959 58.6877 104.164 58.9502 104.427 59.1371C104.694 59.324 105.006 59.4175 105.365 59.4175C105.6 59.4175 105.814 59.3765 106.006 59.2946C106.198 59.2126 106.361 59.0948 106.494 58.9412C106.627 58.7876 106.722 58.6032 106.778 58.3881H107.684C107.633 58.7364 107.506 59.05 107.304 59.3291C107.104 59.6057 106.839 59.8259 106.509 59.9897C106.181 60.1511 105.8 60.2317 105.365 60.2317Z" fill="white"/>
<path d="M108.545 55.0543L108.545 54.2094H113.338L113.338 55.0543H111.402L111.402 60.1088H110.496L110.496 55.0543H108.545Z" fill="white"/>
<path d="M42.3369 71.2437H188.963" stroke="white" stroke-opacity="0.35" stroke-width="0.916414" stroke-dasharray="7.33 7.33"/>
<rect width="151.09" height="18.3283" rx="3.66565" transform="matrix(1 0 0.00283565 0.999996 42.368 82.2407)" fill="white" fill-opacity="0.35"/>
<rect width="91.849" height="18.3283" rx="3.66565" transform="matrix(1 0 0.00283565 0.999996 42.4304 104.234)" fill="white" fill-opacity="0.35"/>
<rect width="151.09" height="18.3283" rx="3.66565" transform="matrix(1 0 0.00283565 0.999996 42.5135 133.56)" fill="white" fill-opacity="0.35"/>
<rect width="91.849" height="18.3283" rx="3.66565" transform="matrix(1 0 0.00283565 0.999996 42.5759 155.553)" fill="white" fill-opacity="0.35"/>
<rect width="173.084" height="143.879" rx="10.997" transform="matrix(1 0 0.00283565 0.999996 143.254 25)" fill="#A3CAF7"/>
<path d="M154.306 44.1088L154.306 36.2429H156.963C157.581 36.2429 158.085 36.3543 158.477 36.577C158.871 36.7972 159.163 37.0955 159.352 37.4719C159.542 37.8483 159.637 38.2683 159.637 38.7317C159.637 39.1952 159.542 39.6164 159.352 39.9953C159.166 40.3743 158.876 40.6764 158.484 40.9017C158.093 41.1245 157.591 41.2359 156.979 41.2359H155.074L155.074 40.3909H156.948C157.371 40.3909 157.71 40.318 157.966 40.172C158.222 40.0261 158.408 39.8289 158.523 39.5805C158.641 39.3296 158.7 39.0467 158.7 38.7317C158.7 38.4168 158.641 38.1351 158.523 37.8867C158.408 37.6384 158.221 37.4438 157.962 37.3029C157.703 37.1595 157.36 37.0879 156.933 37.0879H155.258L155.258 44.1088H154.306Z" fill="white"/>
<path d="M162.784 44.2471C162.41 44.2471 162.071 44.1767 161.766 44.0358C161.462 43.8924 161.22 43.6863 161.04 43.4175C160.861 43.146 160.772 42.8183 160.772 42.4342C160.772 42.0962 160.838 41.8223 160.971 41.6123C161.104 41.3998 161.282 41.2333 161.505 41.113C161.728 40.9926 161.974 40.903 162.243 40.8441C162.514 40.7827 162.787 40.734 163.061 40.6982C163.419 40.6521 163.71 40.6175 163.933 40.5945C164.158 40.5689 164.322 40.5266 164.424 40.4677C164.529 40.4088 164.582 40.3064 164.582 40.1605L164.582 40.1298C164.582 39.7508 164.478 39.4563 164.271 39.2464C164.066 39.0364 163.755 38.9314 163.337 38.9314C162.905 38.9314 162.565 39.0262 162.319 39.2156C162.074 39.4051 161.901 39.6074 161.801 39.8225L160.941 39.5152C161.094 39.1568 161.299 38.8777 161.555 38.6779C161.814 38.4757 162.095 38.3348 162.4 38.2555C162.707 38.1735 163.01 38.1325 163.307 38.1325C163.496 38.1325 163.714 38.1556 163.959 38.2017C164.208 38.2452 164.447 38.3361 164.678 38.4744C164.911 38.6126 165.104 38.8213 165.258 39.1004C165.411 39.3795 165.488 39.7534 165.488 40.2219L165.488 44.1088H164.582L164.582 43.3099H164.536C164.474 43.4379 164.372 43.5749 164.228 43.7209C164.085 43.8668 163.894 43.991 163.656 44.0934C163.418 44.1959 163.127 44.2471 162.784 44.2471ZM162.922 43.4328C163.281 43.4328 163.583 43.3624 163.829 43.2216C164.077 43.0808 164.264 42.899 164.39 42.6762C164.518 42.4534 164.582 42.2191 164.582 41.9733L164.582 41.1437C164.543 41.1898 164.459 41.2321 164.328 41.2705C164.2 41.3063 164.052 41.3383 163.883 41.3665C163.716 41.3921 163.554 41.4151 163.395 41.4356C163.239 41.4535 163.112 41.4689 163.015 41.4817C162.779 41.5124 162.559 41.5624 162.354 41.6315C162.152 41.6981 161.988 41.7992 161.862 41.9349C161.739 42.0681 161.678 42.2499 161.678 42.4803C161.678 42.7953 161.795 43.0334 162.028 43.1947C162.263 43.3534 162.561 43.4328 162.922 43.4328Z" fill="white"/>
<path d="M171.521 35.9971L171.982 36.5501C171.803 36.7243 171.595 36.8459 171.36 36.915C171.124 36.9842 170.858 37.0264 170.561 37.0418C170.264 37.0571 169.933 37.0725 169.57 37.0879C169.16 37.1032 168.821 37.2031 168.552 37.3874C168.283 37.5718 168.076 37.8381 167.93 38.1863C167.784 38.5345 167.69 38.9622 167.65 39.4691H167.726C167.926 39.1004 168.203 38.829 168.556 38.6549C168.909 38.4808 169.288 38.3937 169.693 38.3937C170.154 38.3937 170.568 38.5013 170.937 38.7163C171.306 38.9314 171.598 39.2502 171.813 39.6727C172.028 40.0952 172.136 40.6163 172.136 41.2359C172.136 41.853 172.025 42.3856 171.805 42.8337C171.588 43.2818 171.282 43.6274 170.887 43.8707C170.496 44.1114 170.036 44.2317 169.508 44.2317C168.981 44.2317 168.519 44.1075 168.122 43.8592C167.725 43.6082 167.416 43.2369 167.196 42.7453C166.976 42.2511 166.866 41.6405 166.866 40.9133L166.866 40.2834C166.866 38.9698 167.089 37.9738 167.534 37.2953C167.982 36.6167 168.656 36.2659 169.555 36.2429C169.872 36.2326 170.155 36.2301 170.403 36.2352C170.652 36.2403 170.868 36.2288 171.052 36.2006C171.237 36.1725 171.393 36.1046 171.521 35.9971ZM169.508 43.4175C169.864 43.4175 170.17 43.3278 170.426 43.1486C170.685 42.9694 170.883 42.7172 171.022 42.392C171.16 42.0642 171.229 41.6789 171.229 41.2359C171.229 40.8057 171.159 40.4396 171.018 40.1374C170.88 39.8353 170.681 39.6048 170.423 39.4461C170.164 39.2873 169.854 39.208 169.493 39.208C169.229 39.208 168.992 39.2528 168.783 39.3424C168.573 39.432 168.393 39.5639 168.245 39.738C168.096 39.9121 167.981 40.1246 167.899 40.3756C167.82 40.6265 167.778 40.9133 167.772 41.2359C167.772 41.8965 167.927 42.4253 168.237 42.8221C168.547 43.219 168.971 43.4175 169.508 43.4175Z" fill="white"/>
<path d="M175.919 44.2317C175.386 44.2317 174.919 44.105 174.517 43.8515C174.117 43.598 173.805 43.2433 173.58 42.7876C173.357 42.3318 173.246 41.7992 173.246 41.1898C173.246 40.5753 173.357 40.0389 173.58 39.5805C173.805 39.1222 174.117 38.7663 174.517 38.5128C174.919 38.2593 175.386 38.1325 175.919 38.1325C176.451 38.1325 176.917 38.2593 177.317 38.5128C177.719 38.7663 178.031 39.1222 178.254 39.5805C178.479 40.0389 178.592 40.5753 178.592 41.1898C178.592 41.7992 178.479 42.3318 178.254 42.7876C178.031 43.2433 177.719 43.598 177.317 43.8515C176.917 44.105 176.451 44.2317 175.919 44.2317ZM175.919 43.4175C176.323 43.4175 176.656 43.3138 176.917 43.1064C177.178 42.899 177.372 42.6263 177.497 42.2883C177.623 41.9503 177.685 41.5841 177.685 41.1898C177.685 40.7955 177.623 40.4281 177.497 40.0875C177.372 39.747 177.178 39.4717 176.917 39.2617C176.656 39.0518 176.323 38.9468 175.919 38.9468C175.514 38.9468 175.181 39.0518 174.92 39.2617C174.659 39.4717 174.466 39.747 174.34 40.0875C174.215 40.4281 174.152 40.7955 174.152 41.1898C174.152 41.5841 174.215 41.9503 174.34 42.2883C174.466 42.6263 174.659 42.899 174.92 43.1064C175.181 43.3138 175.514 43.4175 175.919 43.4175Z" fill="white"/>
<path d="M184.523 38.2094L184.523 44.1088H183.617L183.617 38.2094H184.523ZM184.17 41.0208L184.17 41.8658C183.965 41.9426 183.761 42.0105 183.559 42.0693C183.357 42.1257 183.144 42.1705 182.921 42.2038C182.699 42.2345 182.454 42.2499 182.188 42.2499C181.52 42.2499 180.983 42.0693 180.579 41.7083C180.177 41.3473 179.976 40.8057 179.976 40.0837L179.976 38.194H180.882L180.882 40.0837C180.882 40.3858 180.94 40.6342 181.055 40.8288C181.17 41.0234 181.326 41.168 181.523 41.2628C181.721 41.3575 181.942 41.4049 182.188 41.4049C182.572 41.4049 182.919 41.3703 183.229 41.3012C183.541 41.2295 183.855 41.136 184.17 41.0208Z" fill="white"/>
<path d="M187.093 42.7722L189.935 38.2094H190.979L190.979 44.1088H190.073L190.073 39.546L187.246 44.1088H186.186L186.186 38.2094H187.093L187.093 42.7722Z" fill="white"/>
<path d="M193.546 42.7722L196.388 38.2094H197.433L197.433 44.1088H196.526L196.526 39.546L193.7 44.1088H192.64L192.64 38.2094H193.546L193.546 42.7722ZM195.789 36.2429H196.634C196.634 36.6577 196.491 36.997 196.204 37.2607C195.917 37.5244 195.528 37.6563 195.036 37.6563C194.552 37.6563 194.167 37.5244 193.88 37.2607C193.596 36.997 193.454 36.6577 193.454 36.2429H194.299C194.299 36.4426 194.354 36.618 194.464 36.7691C194.577 36.9201 194.767 36.9957 195.036 36.9957C195.305 36.9957 195.497 36.9201 195.612 36.7691C195.73 36.618 195.789 36.4426 195.789 36.2429Z" fill="white"/>
<path d="M201.613 44.1088L201.613 43.2638H201.828C202.004 43.2638 202.152 43.2293 202.269 43.1601C202.387 43.0884 202.482 42.9642 202.554 42.7876C202.628 42.6083 202.684 42.36 202.723 42.0425C202.764 41.7224 202.793 41.3153 202.811 40.8211L202.918 38.2094H206.851L206.851 44.1088H205.945L205.945 39.0543H203.779L203.687 41.1591C203.666 41.643 203.623 42.0693 203.556 42.4381C203.492 42.8042 203.393 43.1115 203.26 43.3598C203.13 43.6082 202.956 43.7951 202.738 43.9206C202.52 44.0461 202.248 44.1088 201.92 44.1088H201.613Z" fill="white"/>
<path d="M209.421 42.7722L212.263 38.2094H213.308L213.308 44.1088H212.401L212.401 39.546L209.575 44.1088H208.514L208.514 38.2094H209.421L209.421 42.7722Z" fill="white"/>
<path d="M217.365 44.2317C216.812 44.2317 216.335 44.1011 215.936 43.8399C215.536 43.5788 215.229 43.219 215.014 42.7607C214.799 42.3024 214.691 41.7787 214.691 41.1898C214.691 40.5906 214.802 40.0619 215.022 39.6036C215.244 39.1427 215.554 38.7829 215.951 38.5243C216.351 38.2631 216.817 38.1325 217.349 38.1325C217.764 38.1325 218.138 38.2094 218.471 38.363C218.804 38.5166 219.076 38.7317 219.289 39.0082C219.501 39.2848 219.633 39.6074 219.684 39.9761H218.778C218.709 39.7073 218.555 39.4691 218.317 39.2617C218.082 39.0518 217.764 38.9468 217.365 38.9468C217.011 38.9468 216.701 39.039 216.435 39.2233C216.171 39.4051 215.965 39.6625 215.817 39.9953C215.671 40.3256 215.598 40.7136 215.598 41.1591C215.598 41.6149 215.67 42.0117 215.813 42.3497C215.959 42.6877 216.164 42.9502 216.427 43.1371C216.694 43.324 217.006 43.4175 217.365 43.4175C217.6 43.4175 217.814 43.3765 218.006 43.2946C218.198 43.2126 218.361 43.0948 218.494 42.9412C218.627 42.7876 218.722 42.6032 218.778 42.3881H219.684C219.633 42.7364 219.506 43.05 219.304 43.3291C219.104 43.6057 218.839 43.8259 218.509 43.9897C218.181 44.1511 217.8 44.2317 217.365 44.2317Z" fill="white"/>
<path d="M220.545 39.0543L220.545 38.2094H225.338L225.338 39.0543H223.402L223.402 44.1088H222.496L222.496 39.0543H220.545Z" fill="white"/>
<path d="M154.337 55.2437L300.963 55.2437" stroke="white" stroke-opacity="0.35" stroke-width="0.916414" stroke-dasharray="7.33 7.33"/>
<rect width="91.849" height="18.3283" rx="3.66565" transform="matrix(1 0 0.00283565 0.999996 154.368 66.2407)" fill="white" fill-opacity="0.35"/>
<rect width="151.09" height="18.3283" rx="3.66565" transform="matrix(1 0 0.00283565 0.999996 154.43 88.2344)" fill="white" fill-opacity="0.35"/>
<rect width="151.09" height="18.3283" rx="3.66565" transform="matrix(1 0 0.00283565 0.999996 154.514 117.56)" fill="white" fill-opacity="0.35"/>
<rect width="91.849" height="18.3283" rx="3.66565" transform="matrix(1 0 0.00283565 0.999996 154.576 139.553)" fill="white" fill-opacity="0.35"/>
<path d="M299.572 43.8784C299.756 43.8784 299.933 43.9459 300.071 44.068C300.208 44.19 300.296 44.3582 300.317 44.5407L300.322 44.6284L300.322 47.6284C300.322 47.8121 300.255 47.9894 300.133 48.1267C300.011 48.264 299.843 48.3517 299.66 48.3732L299.572 48.3784H293.572C293.389 48.3784 293.211 48.311 293.074 48.1889C292.937 48.0668 292.849 47.8986 292.828 47.7162L292.822 47.6284L292.822 44.6284C292.822 44.4447 292.89 44.2674 293.012 44.1301C293.134 43.9929 293.302 43.9052 293.485 43.8837L293.572 43.8784H299.572ZM301.822 37.1284C302.419 37.1284 302.991 37.3655 303.413 37.7874C303.835 38.2094 304.072 38.7817 304.072 39.3784L304.072 44.6284C304.072 45.0262 303.914 45.4078 303.633 45.6891C303.352 45.9704 302.97 46.1284 302.572 46.1284H301.822L301.822 43.8784C301.822 43.4806 301.664 43.0991 301.383 42.8178C301.102 42.5365 300.72 42.3784 300.322 42.3784H292.822C292.425 42.3784 292.043 42.5365 291.762 42.8178C291.48 43.0991 291.322 43.4806 291.322 43.8784L291.322 46.1284H290.572C290.175 46.1284 289.793 45.9704 289.512 45.6891C289.23 45.4078 289.072 45.0262 289.072 44.6284L289.072 39.3784C289.072 38.7817 289.309 38.2094 289.731 37.7874C290.153 37.3655 290.726 37.1284 291.322 37.1284H301.822ZM300.322 38.6284H298.822C298.631 38.6286 298.447 38.7018 298.308 38.8331C298.169 38.9643 298.086 39.1436 298.074 39.3345C298.063 39.5253 298.125 39.7132 298.248 39.8598C298.371 40.0064 298.545 40.1006 298.735 40.1232L298.822 40.1284H300.322C300.513 40.1282 300.697 40.055 300.836 39.9238C300.975 39.7926 301.059 39.6132 301.07 39.4224C301.081 39.2315 301.019 39.0436 300.897 38.897C300.774 38.7505 300.6 38.6562 300.41 38.6337L300.322 38.6284ZM300.322 33.3784C300.521 33.3784 300.712 33.4574 300.853 33.5981C300.993 33.7387 301.072 33.9295 301.072 34.1284L301.072 35.6284H292.072L292.072 34.1284C292.072 33.9295 292.151 33.7387 292.292 33.5981C292.433 33.4574 292.623 33.3784 292.822 33.3784H300.322Z" fill="white" fill-opacity="0.4"/>
</g>
<defs>
<linearGradient id="paint0_linear_3667_518" x1="44.6024" y1="34.93" x2="370.228" y2="103.15" gradientUnits="userSpaceOnUse">
<stop stop-color="#60A4F1"/>
<stop offset="1" stop-color="#9DCCFF"/>
</linearGradient>
</defs>
</svg>
