<svg width="348" height="180" viewBox="0 0 348 180" fill="none" xmlns="http://www.w3.org/2000/svg">
<g clip-path="url(#clip0_3672_817)">
<rect width="348" height="180" fill="#E6F2FF"/>
<rect x="128" y="112" width="30" height="30" fill="#C5DCF6"/>
<rect x="159" y="112" width="30" height="30" fill="#C5DCF6"/>
<rect x="190" y="112" width="30" height="30" fill="#C5DCF6"/>
<rect x="221" y="112" width="30" height="30" fill="#C5DCF6"/>
<rect x="252" y="112" width="30" height="30" fill="#C5DCF6"/>
<rect x="159" y="19" width="30" height="30" fill="#C5DCF6"/>
<rect x="97" y="50" width="30" height="30" fill="#C5DCF6"/>
<rect x="128" y="50" width="30" height="30" fill="#C5DCF6"/>
<rect x="66" y="50" width="30" height="30" fill="#C5DCF6"/>
<rect x="159" y="50" width="30" height="30" fill="#C5DCF6"/>
<rect x="190" y="50" width="30" height="30" fill="#C5DCF6"/>
<path d="M70.6477 53.1818V59H69.9432V53.9205H69.9091L68.4886 54.8636V54.1477L69.9432 53.1818H70.6477Z" fill="#80B6F4"/>
<path d="M161.602 28V27.4886L163.523 25.3864C163.748 25.1402 163.934 24.9261 164.08 24.7443C164.225 24.5606 164.333 24.3883 164.403 24.2273C164.475 24.0644 164.511 23.8939 164.511 23.7159C164.511 23.5114 164.462 23.3343 164.364 23.1847C164.267 23.035 164.134 22.9195 163.966 22.8381C163.797 22.7566 163.608 22.7159 163.398 22.7159C163.174 22.7159 162.979 22.7623 162.812 22.8551C162.648 22.946 162.52 23.0739 162.429 23.2386C162.34 23.4034 162.295 23.5966 162.295 23.8182H161.625C161.625 23.4773 161.704 23.178 161.861 22.9205C162.018 22.6629 162.232 22.4621 162.503 22.3182C162.776 22.1742 163.081 22.1023 163.42 22.1023C163.761 22.1023 164.063 22.1742 164.327 22.3182C164.59 22.4621 164.796 22.6562 164.946 22.9006C165.096 23.1449 165.17 23.4167 165.17 23.7159C165.17 23.9299 165.132 24.1392 165.054 24.3438C164.978 24.5464 164.846 24.7727 164.656 25.0227C164.469 25.2708 164.208 25.5739 163.875 25.9318L162.568 27.3295V27.375H165.273V28H161.602Z" fill="#80B6F4"/>
<rect x="159" y="81" width="30" height="30" fill="#C5DCF6"/>
<path d="M132.568 121.08C132.193 121.08 131.859 121.015 131.565 120.886C131.274 120.758 131.042 120.579 130.869 120.349C130.699 120.118 130.606 119.85 130.591 119.545H131.307C131.322 119.733 131.386 119.895 131.5 120.031C131.614 120.166 131.762 120.27 131.946 120.344C132.13 120.418 132.333 120.455 132.557 120.455C132.807 120.455 133.028 120.411 133.222 120.324C133.415 120.237 133.566 120.116 133.676 119.96C133.786 119.805 133.841 119.625 133.841 119.42C133.841 119.206 133.788 119.018 133.682 118.855C133.576 118.69 133.42 118.562 133.216 118.469C133.011 118.376 132.761 118.33 132.466 118.33H132V117.705H132.466C132.697 117.705 132.9 117.663 133.074 117.58C133.25 117.496 133.387 117.379 133.486 117.227C133.586 117.076 133.636 116.898 133.636 116.693C133.636 116.496 133.593 116.325 133.506 116.179C133.419 116.033 133.295 115.92 133.136 115.838C132.979 115.757 132.794 115.716 132.58 115.716C132.379 115.716 132.189 115.753 132.011 115.827C131.835 115.899 131.691 116.004 131.58 116.142C131.468 116.278 131.407 116.443 131.398 116.636H130.716C130.727 116.331 130.819 116.064 130.991 115.835C131.164 115.604 131.389 115.424 131.668 115.295C131.948 115.167 132.256 115.102 132.591 115.102C132.951 115.102 133.259 115.175 133.517 115.321C133.775 115.465 133.973 115.655 134.111 115.892C134.249 116.129 134.318 116.384 134.318 116.659C134.318 116.987 134.232 117.266 134.06 117.497C133.889 117.728 133.657 117.888 133.364 117.977V118.023C133.731 118.083 134.018 118.24 134.224 118.491C134.431 118.741 134.534 119.051 134.534 119.42C134.534 119.737 134.448 120.021 134.276 120.273C134.105 120.523 133.872 120.72 133.577 120.864C133.281 121.008 132.945 121.08 132.568 121.08Z" fill="#80B6F4"/>
</g>
<defs>
<clipPath id="clip0_3672_817">
<rect width="348" height="180" fill="white"/>
</clipPath>
</defs>
</svg>
