<svg width="308" height="180" viewBox="0 0 308 180" fill="none" xmlns="http://www.w3.org/2000/svg">
<g clip-path="url(#clip0_3672_3133)">
<rect x="-20" width="348" height="180" fill="#E6F2FF"/>
<rect x="40" y="35.6606" width="178" height="64" rx="10" transform="rotate(-2.7888 40 35.6606)" fill="#C5DCF6"/>
<g clip-path="url(#clip1_3672_3133)">
<rect x="48.3798" y="43.2617" width="50" height="48" rx="7" transform="rotate(-2.7888 48.3798 43.2617)" fill="#C5DCF6"/>
<path fill-rule="evenodd" clip-rule="evenodd" d="M53.8417 43.2039C53.1814 43.4191 52.0319 43.9732 51.6746 44.2486C51.0935 44.6962 49.7025 46.3991 49.4425 46.981C48.6497 48.7554 48.6393 47.0123 49.5616 66.8276C50.1292 79.02 50.4548 85.0255 50.5733 85.4834C51.1342 87.651 53.1428 89.782 55.2409 90.4355C56.7879 90.9172 57.1785 90.9079 76.3574 89.9301C94.7659 88.9917 94.7983 88.9894 95.5265 88.6686C96.8763 88.0739 97.597 87.5854 98.369 86.7419C99.4133 85.6008 100.069 84.1111 100.213 82.5507C100.294 81.6764 100.098 77.2042 99.4006 64.0279L98.4813 46.6579L98.0708 45.7506C97.3675 44.1966 96.7287 43.4362 95.1425 42.2662C94.5984 41.8648 93.6278 41.4905 92.673 41.3138C91.9047 41.1717 89.4097 41.2683 73.1489 42.0691C57.8443 42.8229 54.3869 43.0262 53.8417 43.2039ZM54.4214 45.3436C52.5955 45.9311 51.2354 47.5518 50.9803 49.4439C50.9123 49.9482 51.1592 56.0003 51.7044 67.1922C52.611 85.8045 52.5341 84.9575 53.4414 86.3386C53.9905 87.1743 54.4231 87.5343 55.486 88.0403L56.3148 88.4347L75.4296 87.5036L94.5444 86.5725L95.2989 86.1729C96.2174 85.6863 97.187 84.6447 97.5532 83.751C97.7027 83.3863 97.8603 82.6497 97.9036 82.1141C98.0193 80.6789 96.4254 48.2034 96.1901 47.2051C95.9535 46.2009 95.5726 45.5405 94.7939 44.7851C94.0614 44.0743 92.9328 43.5532 91.8605 43.4308C91.41 43.3793 83.6168 43.7101 73.1191 44.2261C57.7421 44.9821 55.0439 45.1433 54.4214 45.3436ZM66.5934 51.8881C64.1135 52.9407 63.2109 55.9659 64.7211 58.1631C65.6437 59.5053 66.9676 60.1042 68.6216 59.9274C69.8478 59.7962 70.7156 59.3426 71.471 58.4381C73.3218 56.222 72.4415 52.9974 69.678 51.8704C68.848 51.5319 67.4132 51.5402 66.5934 51.8881ZM82.0543 58.5734C81.7782 58.7094 79.7161 60.8708 76.8251 64.0538C74.1998 66.9442 71.8599 69.425 71.6256 69.5663C71.1267 69.8671 70.2519 69.9399 69.6747 69.7288C69.3042 69.5933 67.6966 68.3153 65.285 66.2393C64.7803 65.8047 64.1943 65.3929 63.9829 65.3241C63.4685 65.1565 62.37 65.2201 61.914 65.4437C61.5475 65.6236 59.7424 67.4152 56.1156 71.1991C55.134 72.2233 55.1282 72.2663 55.3184 77.2115C55.4343 80.2288 55.5474 81.8184 55.6817 82.3235C55.9555 83.3529 56.6203 84.2352 57.5311 84.7784L58.2944 85.2335L75.3343 84.4034L92.3744 83.5734L93.0152 83.1534C93.8566 82.6017 94.3741 81.9622 94.6392 81.1465C94.8371 80.5371 94.8299 79.973 94.5513 74.252C94.3354 69.8165 94.1935 67.8594 94.0588 67.4589C93.8961 66.9752 93.2374 66.3274 89.3504 62.8282C86.4871 60.2507 84.6244 58.6719 84.2672 58.5199C83.602 58.2368 82.6921 58.2588 82.0543 58.5734Z" fill="#D7E6F7"/>
</g>
<rect x="106.311" y="40.4399" width="73" height="12" rx="4" transform="rotate(-2.7888 106.311 40.4399)" fill="#D7E6F7"/>
<rect x="107.187" y="58.4185" width="104" height="12" rx="4" transform="rotate(-2.7888 107.187 58.4185)" fill="#D7E6F7"/>
<rect x="108.063" y="76.3975" width="29" height="12" rx="4" transform="rotate(-2.7888 108.063 76.3975)" fill="#D7E6F7"/>
<rect x="90.7244" y="70" width="178" height="64" rx="10" transform="rotate(6.03117 90.7244 70)" fill="#A3CAF7"/>
<g clip-path="url(#clip2_3672_3133)">
<rect x="97.8395" y="78.7964" width="50" height="48" rx="7" transform="rotate(6.03117 97.8395 78.7964)" fill="#A3CAF7"/>
<path fill-rule="evenodd" clip-rule="evenodd" d="M103.246 79.5768C102.56 79.6883 101.339 80.0596 100.944 80.2769C100.301 80.6301 98.6655 82.0996 98.3194 82.6347C97.2639 84.2665 97.5209 82.5425 95.394 102.265C94.0854 114.4 93.4864 120.385 93.5333 120.855C93.7551 123.083 95.4132 125.497 97.3864 126.464C98.8412 127.178 99.2286 127.228 118.331 129.203C136.665 131.098 136.698 131.101 137.467 130.895C138.892 130.515 139.679 130.143 140.571 129.427C141.778 128.46 142.654 127.088 143.036 125.569C143.25 124.717 143.742 120.268 145.073 107.14L146.828 89.8346L146.561 88.8751C146.105 87.2316 145.59 86.3823 144.202 84.9829C143.726 84.5027 142.824 83.9841 141.908 83.6631C141.17 83.4049 138.69 83.1177 122.499 81.4159C107.259 79.8141 103.812 79.4848 103.246 79.5768ZM103.49 81.7801C101.596 82.0807 100.004 83.4737 99.4614 85.3043C99.3169 85.7922 98.6329 91.8106 97.4556 102.954C95.4977 121.485 95.5515 120.636 96.2363 122.14C96.6508 123.05 97.023 123.472 97.9958 124.135L98.7544 124.652L117.786 126.663L136.817 128.674L137.624 128.394C138.607 128.054 139.724 127.174 140.223 126.347C140.427 126.009 140.696 125.306 140.82 124.783C141.155 123.382 144.559 91.0465 144.48 90.024C144.4 88.9954 144.125 88.2844 143.471 87.4185C142.856 86.6038 141.821 85.9159 140.78 85.6305C140.343 85.5105 132.591 84.6424 122.138 83.5428C106.827 81.932 104.136 81.6777 103.49 81.7801ZM114.515 90.1136C111.903 90.7735 110.547 93.6245 111.703 96.0273C112.409 97.4951 113.625 98.2899 115.287 98.3688C116.518 98.4272 117.446 98.112 118.331 97.334C120.499 95.4279 120.124 92.1064 117.566 90.569C116.798 90.1073 115.379 89.8955 114.515 90.1136ZM128.768 99.0904C128.474 99.1825 126.105 101.002 122.76 103.704C119.723 106.158 117.03 108.251 116.777 108.354C116.238 108.575 115.362 108.513 114.824 108.216C114.479 108.025 113.086 106.516 111.022 104.094C110.59 103.588 110.074 103.091 109.875 102.99C109.393 102.746 108.297 102.64 107.813 102.791C107.423 102.913 105.364 104.407 101.2 107.59C100.073 108.451 100.061 108.493 99.4906 113.409C99.1425 116.408 99.0105 117.996 99.0657 118.516C99.1785 119.575 99.7001 120.549 100.517 121.225L101.201 121.792L118.167 123.585L135.133 125.377L135.831 125.06C136.747 124.644 137.356 124.092 137.743 123.326C138.032 122.754 138.111 122.196 138.713 116.5C139.18 112.084 139.34 110.128 139.268 109.712C139.182 109.209 138.63 108.467 135.326 104.414C132.891 101.428 131.293 99.5818 130.963 99.3768C130.349 98.9951 129.447 98.8774 128.768 99.0904Z" fill="#C5DCF6"/>
</g>
<rect x="155.518" y="84.8901" width="73" height="12" rx="4" transform="rotate(6.03117 155.518 84.8901)" fill="#C5DCF6"/>
<rect x="153.627" y="102.791" width="104" height="12" rx="4" transform="rotate(6.03117 153.627 102.791)" fill="#C5DCF6"/>
<rect x="151.736" y="120.691" width="29" height="12" rx="4" transform="rotate(6.03117 151.736 120.691)" fill="#C5DCF6"/>
</g>
<defs>
<clipPath id="clip0_3672_3133">
<path d="M0 16C0 7.16344 7.16344 0 16 0H292C300.837 0 308 7.16344 308 16V164C308 172.837 300.837 180 292 180H16C7.16345 180 0 172.837 0 164V16Z" fill="white"/>
</clipPath>
<clipPath id="clip1_3672_3133">
<rect x="48.3798" y="43.2617" width="50" height="48" rx="7" transform="rotate(-2.7888 48.3798 43.2617)" fill="white"/>
</clipPath>
<clipPath id="clip2_3672_3133">
<rect x="97.8395" y="78.7964" width="50" height="48" rx="7" transform="rotate(6.03117 97.8395 78.7964)" fill="white"/>
</clipPath>
</defs>
</svg>
